<?xml version="1.0" encoding="utf-8"?>
<!-- Generator: Adobe Illustrator 24.1.2, SVG Export Plug-In . SVG Version: 6.00 Build 0)  -->
<svg version="1.1" id="Camada_1" xmlns="http://www.w3.org/2000/svg" xmlns:xlink="http://www.w3.org/1999/xlink" x="0px" y="0px"
	 viewBox="0 0 694 354" style="enable-background:new 0 0 694 354;" xml:space="preserve">
<style type="text/css">
	.st0{fill:#F5F5F5;}
	.st1{fill:#E0E0E0;}
	.st2{fill:#FAFAFA;}
	.st3{fill:#EBEBEB;}
	.st4{display:none;}
	.st5{display:inline;fill:#EBEBEB;}
	.st6{display:inline;}
	.st7{fill:#E8505B;}
	.st8{fill:#05DCFF;}
	.st9{opacity:0.3;}
	.st10{fill:#FFFFFF;}
	.st11{fill:#263238;}
	.st12{fill:#FFBE9D;}
	.st13{fill:#455A64;}
	.st14{fill:#EB996E;}
	.st15{fill:none;stroke:#4E585D;stroke-miterlimit:10;}
	.st16{fill:#B78876;}
	.st17{fill:#AA6550;}
</style>
<g id="Background_Complete">
	<g>
		<g>
			<g>
				<g>
					<g>
						<path class="st0" d="M590.6,347.1c-24.1-14.8-31.2-44.5-31.9-71.5c-0.1-4.5-0.9-9.2,1-13.3c1.9-4.1,6.7-7.1,10.9-5.4
							c3.4,1.4,5.1,5.2,7.2,8.3c2.8,4.1,6.7,7.5,11.2,9.5c3,1.3,6.6,2,9.3,0.3c3.8-2.4,3.9-7.8,3.6-12.3c-0.6-8.4-1.1-16.7-1.7-25
							c-0.3-4.5-0.6-9,0.5-13.4c1.1-4.3,4-8.5,8.2-9.9s9.6,0.7,10.8,5c0.5,1.8,0.2,3.7,0.5,5.6c0.2,1.9,1.2,3.9,3,4.3
							c1.8,0.4,3.5-1,4.8-2.4c4.3-4.8,7.1-10.8,9.7-16.8c2.6-6,5.1-12.1,9-17.3c3.9-5.2,9.5-9.5,15.9-10.2c6.4-0.8,13.5,2.8,15.5,9
							c2,6.2-1.3,12.9-5,18.2c-5.5,7.9-12.1,15.1-19.6,21.1c-1.3,1.1-2.8,2.3-3.3,4c-0.8,3,2.2,5.8,5.2,6.6c3.4,0.9,7,0.4,10.5,0.5
							c3.5,0.2,7.4,1.5,8.9,4.7c2.1,4.5-1.4,9.5-5,12.9c-7.2,6.8-15.5,12.2-24.5,16.2c-3.2,1.4-6.6,2.7-9.1,5.1
							c-2.5,2.5-3.9,6.6-2.1,9.7s6,3.8,9.4,3c3.4-0.9,6.4-2.9,9.6-4.4c6-2.7,14-2.8,18.3,2.3c2.8,3.3,3.3,8.2,2.3,12.4
							c-1.1,4.3-3.5,8-6.1,11.5c-9.2,12.2-21.2,22.3-35.2,28.1C618.2,349.3,605.1,351.5,590.6,347.1"/>
					</g>
				</g>
			</g>
		</g>
	</g>
	<g>
		<g>
			<g>
				<g>
					<g>
						<g>
							<path class="st1" d="M596.5,329.8c3.2-13.9,7.9-28.8,13.3-44.2c1.4-3.9,2.7-7.6,4.1-11.4c1.3-3.7,2.7-7.5,4.2-11
								c3-7.1,6.5-13.7,10-19.9c3.5-6.2,7-11.9,10.3-17.2c3.3-5.3,6.6-10.2,9.7-14.6c6.2-8.7,12-15.1,16.2-19.4
								c2.1-2.1,3.8-3.7,4.9-4.8c0.5-0.5,1-0.9,1.3-1.2c0.3-0.3,0.5-0.4,0.5-0.4c0,0-0.1,0.2-0.4,0.5c-0.3,0.3-0.7,0.7-1.3,1.3
								c-1.1,1.1-2.8,2.7-4.8,4.9c-4.1,4.3-9.9,10.8-16,19.5c-3.1,4.4-6.3,9.3-9.6,14.6c-3.3,5.3-6.8,11.1-10.3,17.2
								s-6.9,12.7-9.9,19.8c-1.5,3.5-2.8,7.2-4.2,11c-1.3,3.8-2.7,7.5-4.1,11.4c-5.5,15.4-10.2,30.3-13.4,44.1"/>
						</g>
					</g>
				</g>
			</g>
		</g>
	</g>
	<g>
		<g>
			<g>
				<g>
					<g>
						<g>
							<path class="st1" d="M618.4,263.2c0,0-0.3-0.7-0.5-1.9c-0.3-1.2-0.7-3-1.2-5.2c-0.9-4.4-1.9-10.6-3.1-17.4
								c-1.1-6.8-2.2-12.9-3.2-17.3c-0.5-2.2-0.9-4-1.2-5.2c-0.3-1.2-0.4-1.9-0.4-1.9s0.3,0.6,0.7,1.8c0.4,1.2,0.9,3,1.4,5.1
								c1.1,4.4,2.3,10.5,3.5,17.3c1.1,6.7,2.1,12.8,2.8,17.4c0.3,2.1,0.7,3.9,0.9,5.3C618.3,262.5,618.4,263.2,618.4,263.2z"/>
						</g>
					</g>
				</g>
			</g>
		</g>
	</g>
	<g>
		<g>
			<g>
				<g>
					<g>
						<g>
							<path class="st1" d="M675.3,249c0,0.1-0.8,0.2-2.3,0.4c-1.5,0.2-3.6,0.5-6.2,1c-5.2,0.9-12.4,2.4-20.3,4.4
								c-7.9,2-14.9,4.1-20,5.8c-2.5,0.8-4.6,1.5-6,2c-1.4,0.5-2.2,0.7-2.2,0.7s0.7-0.4,2.1-1c1.4-0.6,3.4-1.4,5.9-2.3
								c5-1.8,12.1-4,20-6c7.9-2,15.1-3.4,20.4-4.1c2.6-0.4,4.8-0.6,6.3-0.7C674.5,248.9,675.3,248.9,675.3,249z"/>
						</g>
					</g>
				</g>
			</g>
		</g>
	</g>
	<g>
		<g>
			<g>
				<g>
					<g>
						<g>
							<path class="st1" d="M597.2,328.7c0,0-0.2-0.2-0.4-0.7c-0.3-0.5-0.7-1.2-1.1-2c-1-1.8-2.3-4.4-3.9-7.6
								c-3.2-6.4-7.3-15.5-11.7-25.5c-4.4-10-8.4-19.1-11.5-25.5c-1.5-3.1-2.7-5.8-3.6-7.7c-0.4-0.8-0.7-1.5-1-2.1
								c-0.2-0.5-0.3-0.7-0.3-0.8c0,0,0.2,0.2,0.4,0.7c0.3,0.5,0.7,1.2,1.1,2c1,1.8,2.3,4.4,3.9,7.6c3.2,6.4,7.3,15.5,11.7,25.5
								c4.4,10,8.4,19.1,11.5,25.5c1.5,3.1,2.7,5.8,3.6,7.7c0.4,0.8,0.7,1.5,1,2.1C597.1,328.4,597.2,328.7,597.2,328.7z"/>
						</g>
					</g>
				</g>
			</g>
		</g>
	</g>
	<g>
		<g>
			<g>
				<g>
					<g>
						<g>
							<path class="st1" d="M672.2,299.4c0,0-0.3,0.1-0.7,0.4c-0.6,0.2-1.3,0.5-2.2,0.9c-2,0.8-4.7,1.9-8,3.1
								c-6.8,2.7-16.1,6.5-26.4,10.6c-10.3,4.2-19.7,7.9-26.5,10.4c-3.4,1.3-6.2,2.3-8.1,2.9c-0.9,0.3-1.6,0.5-2.2,0.7
								c-0.5,0.2-0.8,0.2-0.8,0.2s0.3-0.1,0.7-0.4c0.6-0.2,1.3-0.5,2.2-0.9c2-0.8,4.7-1.9,8-3.1c6.8-2.7,16.1-6.5,26.4-10.6
								c10.3-4.2,19.7-7.9,26.5-10.4c3.4-1.3,6.2-2.3,8.1-2.9c0.9-0.3,1.6-0.5,2.2-0.7C671.9,299.5,672.2,299.4,672.2,299.4z"/>
						</g>
					</g>
				</g>
			</g>
		</g>
	</g>
	<g>
		<g>
			<g>
				<path class="st1" d="M150.3,196.1l-77.4,37.3c-1.2,0.6-2.6,0.1-3.2-1.1l-52-108c-0.6-1.2-0.1-2.6,1.1-3.2l77.4-37.3
					c1.2-0.6,2.6-0.1,3.2,1.1l52,108C152,194.1,151.5,195.5,150.3,196.1z"/>
			</g>
		</g>
	</g>
	<g>
		<g>
			<g>
				
					<rect x="43.6" y="99.1" transform="matrix(0.9011 -0.4337 0.4337 0.9011 -59.8281 51.9142)" class="st2" width="80.6" height="116"/>
			</g>
		</g>
	</g>
	<g>
		<g>
			<g>
				<path class="st3" d="M74.2,99.3c-3-2.3-7-2.7-10.3-1.1l-2.2-4.4C60,90.4,56,89,52.6,90.6l0,0c-3.4,1.6-4.8,5.7-3.2,9.1l2.2,4.6
					l-1.6,0.8c-3.3,1.6-5.4,5-5.4,8.7l0,2.3l31.6-15.2L74.2,99.3z M57.3,100c-1.8,0.9-4,0.1-4.9-1.7c-0.9-1.8-0.1-4,1.7-4.9
					c1.8-0.9,4-0.1,4.9,1.7C59.9,96.9,59.2,99.1,57.3,100z"/>
			</g>
		</g>
	</g>
	<g>
		<g>
			<g>
				<g>
					<path class="st1" d="M56.4,124.1c0.1,0.1-4.3,2.4-9.7,5c-5.4,2.6-9.9,4.6-10,4.5s4.3-2.4,9.7-5C51.9,126,56.4,124,56.4,124.1z"
						/>
				</g>
			</g>
		</g>
	</g>
	<g>
		<g>
			<g>
				<g>
					<path class="st1" d="M47.8,132.4c0.1,0.1-2,1.3-4.6,2.5c-2.6,1.3-4.8,2.2-4.9,2.1c-0.1-0.1,2-1.3,4.6-2.5
						C45.6,133.2,47.8,132.2,47.8,132.4z"/>
				</g>
			</g>
		</g>
	</g>
	<g>
		<g>
			<g>
				<g>
					<path class="st1" d="M98.6,119.4c0.1,0.1-12.2,6.1-27.3,13.4c-15.1,7.3-27.5,13.1-27.5,13c-0.1-0.1,12.2-6.1,27.3-13.4
						C86.2,125,98.5,119.2,98.6,119.4z"/>
				</g>
			</g>
		</g>
	</g>
	<g>
		<g>
			<g>
				<g>
					<path class="st1" d="M101.1,124.6c0.1,0.1-12.2,6.1-27.3,13.4c-15.1,7.3-27.5,13.1-27.5,13c-0.1-0.1,12.2-6.1,27.3-13.4
						C88.7,130.3,101,124.4,101.1,124.6z"/>
				</g>
			</g>
		</g>
	</g>
	<g>
		<g>
			<g>
				<g>
					<path class="st1" d="M103.6,129.8c0.1,0.1-12.2,6.1-27.3,13.4s-27.5,13.1-27.5,13c-0.1-0.1,12.2-6.1,27.3-13.4
						S103.5,129.7,103.6,129.8z"/>
				</g>
			</g>
		</g>
	</g>
	<g>
		<g>
			<g>
				<g>
					<path class="st1" d="M106.1,135c0.1,0.1-12.2,6.1-27.3,13.4s-27.5,13.1-27.5,13c-0.1-0.1,12.2-6.1,27.3-13.4
						C93.7,140.7,106.1,134.9,106.1,135z"/>
				</g>
			</g>
		</g>
	</g>
	<g>
		<g>
			<g>
				<g>
					<path class="st1" d="M108.6,140.3c0.1,0.1-12.2,6.1-27.3,13.4s-27.5,13.1-27.5,13c-0.1-0.1,12.2-6.1,27.3-13.4
						C96.2,145.9,108.6,140.1,108.6,140.3z"/>
				</g>
			</g>
		</g>
	</g>
	<g>
		<g>
			<g>
				<g>
					<path class="st1" d="M111.1,145.5c0.1,0.1-12.2,6.1-27.3,13.4c-15.1,7.3-27.5,13.1-27.5,13c-0.1-0.1,12.2-6.1,27.3-13.4
						C98.8,151.2,111.1,145.4,111.1,145.5z"/>
				</g>
			</g>
		</g>
	</g>
	<g>
		<g>
			<g>
				<g>
					<path class="st1" d="M86,163.4c0,0-0.3,0.3-1,0.6c-0.8,0.4-1.8,0.9-2.9,1.5c-2.5,1.2-5.9,2.9-9.7,4.7c-3.8,1.8-7.2,3.5-9.7,4.6
						c-1.2,0.5-2.2,1-3,1.3c-0.7,0.3-1.1,0.5-1.1,0.4c0,0,0.3-0.3,1-0.6c0.8-0.4,1.8-0.9,2.9-1.5c2.5-1.2,5.9-2.9,9.7-4.7
						c3.8-1.8,7.2-3.4,9.7-4.6c1.2-0.5,2.2-1,3-1.3C85.6,163.5,86,163.4,86,163.4z"/>
				</g>
			</g>
		</g>
	</g>
	<g>
		<g>
			<g>
				<g>
					<path class="st1" d="M94.7,105.2c0.1,0.1-1.8,1.2-4.3,2.4c-2.4,1.2-4.4,2-4.5,1.9c-0.1-0.1,1.8-1.2,4.3-2.4
						C92.6,105.9,94.6,105,94.7,105.2z"/>
				</g>
			</g>
		</g>
	</g>
	<g>
		<g>
			<g>
				<g>
					<path class="st1" d="M79,180.8c0.1,0.1-3.1,1.8-7,3.7c-3.9,1.9-7.2,3.3-7.2,3.2c-0.1-0.1,3.1-1.8,7-3.7
						C75.7,182.1,79,180.7,79,180.8z"/>
				</g>
			</g>
		</g>
	</g>
	<g>
		<g>
			<g>
				<g>
					<path class="st1" d="M81.8,185.3c0.1,0.1-3.1,1.8-7.1,3.7c-4,1.9-7.3,3.4-7.3,3.3s3.1-1.8,7.1-3.7
						C78.4,186.6,81.7,185.2,81.8,185.3z"/>
				</g>
			</g>
		</g>
	</g>
	<g>
		<g>
			<g>
				<g>
					<path class="st1" d="M120,160.2c0.1,0.1-1.4,1-3.3,1.9c-1.9,0.9-3.5,1.5-3.6,1.4c-0.1-0.1,1.4-1,3.3-1.9
						C118.3,160.7,119.9,160.1,120,160.2z"/>
				</g>
			</g>
		</g>
	</g>
	<g>
		<g>
			<g>
				<g>
					<path class="st1" d="M122.3,164.4c0.1,0.1-1.4,1-3.3,1.9c-1.9,0.9-3.5,1.5-3.6,1.4c-0.1-0.1,1.4-1,3.3-1.9
						C120.6,164.9,122.2,164.2,122.3,164.4z"/>
				</g>
			</g>
		</g>
	</g>
	<g>
		<g>
			<g>
				<g>
					<path class="st1" d="M77.5,193.5c0.1,0.1-1.4,1-3.2,1.8c-1.8,0.9-3.4,1.5-3.4,1.4c-0.1-0.1,1.4-1,3.2-1.8
						C75.9,194,77.5,193.4,77.5,193.5z"/>
				</g>
			</g>
		</g>
	</g>
	<g>
		<g>
			<g>
				<g>
					<path class="st1" d="M124.9,169.2c0.1,0.1-1,0.8-2.4,1.4s-2.5,1.1-2.6,1c-0.1-0.1,1-0.8,2.4-1.4S124.8,169.1,124.9,169.2z"/>
				</g>
			</g>
		</g>
	</g>
	<g>
		<g>
			<g>
				<g>
					<path class="st1" d="M75.9,208.1c0,0,0.1-0.1,0.3-0.2c0.2-0.1,0.5-0.3,0.8-0.6c0.8-0.5,1.9-1.2,3.2-2.1
						c2.8-1.8,6.8-4.3,11.6-7.3l0.2-0.1l0.1,0.3c0.5,1.3,0.6,2.9,0.1,4.4c-0.5,1.5-1.6,2.9-3.2,3.5c-1.6,0.6-3.5,0.5-4.9-0.6
						c-1.5-1-2.1-3.1-1.7-4.9c0.2-0.7,0.5-1.3,1-1.8c0.1-0.1,0.2-0.3,0.4-0.4c0.1-0.1,0.3-0.2,0.4-0.3c0.2-0.1,0.5-0.1,0.7,0
						c0.2,0.1,0.3,0.3,0.4,0.5c0.6,1.2,0.9,2.4,1,3.7s-0.1,2.5-0.6,3.7c-0.4,1.1-1.1,2.2-2.2,2.9c-1.1,0.7-2.4,0.5-3.4-0.1
						c-1-0.6-1.7-1.5-2-2.5c-0.7-2-0.2-4,0-5.6l0.1-0.4l0.3,0.3c1.2,1.3,1.8,2.9,1.9,4.3c0.2,1.4,0,2.6-0.3,3.5
						c-0.3,0.9-0.7,1.6-1,2c-0.2,0.2-0.3,0.4-0.4,0.5c-0.1,0.1-0.1,0.1-0.1,0.1c-0.1,0,0.8-0.8,1.3-2.7c0.3-0.9,0.4-2.1,0.2-3.5
						c-0.2-1.3-0.7-2.9-1.9-4.1l0.3-0.1c-0.3,1.7-0.6,3.6,0,5.4c0.3,0.9,1,1.7,1.8,2.3s2,0.6,2.9,0.1c0.9-0.6,1.5-1.5,1.9-2.6
						c0.4-1.1,0.6-2.3,0.5-3.5s-0.4-2.4-1-3.5c-0.1-0.1-0.2-0.2-0.2-0.3s-0.1,0-0.2,0c-0.2,0.1-0.5,0.3-0.7,0.5
						c-0.4,0.4-0.7,1-0.8,1.6c-0.4,1.6,0.2,3.4,1.4,4.3c1.3,0.9,3.1,1,4.5,0.5c1.4-0.5,2.5-1.8,2.9-3.1c0.5-1.4,0.4-2.9-0.1-4.1
						l0.3,0.1c-4.8,2.9-8.8,5.4-11.7,7.1c-1.4,0.8-2.5,1.5-3.3,2c-0.4,0.2-0.6,0.4-0.9,0.5C76,208.1,75.9,208.2,75.9,208.1z"/>
				</g>
			</g>
		</g>
	</g>
	<g>
		<g>
			<g>
				<g>
					<path class="st1" d="M127.8,182.9c0,0,0,0.3-0.2,0.9c-0.1,0.3-0.2,0.7-0.4,1.1c-0.3,0.4-0.7,0.8-1.3,1c-0.3,0.1-0.6,0.1-1,0
						s-0.6-0.4-0.8-0.6c-0.4-0.6-0.7-1.2-1.1-1.9c-0.8-1.4-1.6-2.9-2.5-4.5l0.5-0.1c-0.1,2.3-0.2,4.8-0.3,7.4c0,0.6-0.1,1.2-0.1,1.9
						l0,1l-0.4-0.9c-1.4-2.8-2.6-5.4-3.8-7.7l0.4,0c-0.8,2.8-0.9,5.3-0.9,7c0,1.7,0.1,2.7,0.1,2.7c0,0-0.1-0.2-0.1-0.7
						c-0.1-0.5-0.1-1.1-0.2-2c-0.1-1.7,0-4.2,0.8-7.1l0.1-0.6l0.3,0.5c1.1,2.3,2.4,4.9,3.8,7.7l-0.5,0.1c0-0.6,0.1-1.2,0.1-1.9
						c0.1-2.6,0.2-5.1,0.3-7.4l0-0.9l0.4,0.8c0.9,1.6,1.7,3.2,2.4,4.6c0.4,0.7,0.7,1.4,1,1.9c0.4,0.5,0.9,0.8,1.4,0.6
						c1.1-0.3,1.4-1.2,1.6-1.8C127.7,183.3,127.8,182.9,127.8,182.9z"/>
				</g>
			</g>
		</g>
	</g>
	<g>
		<g>
			<g>
				<g>
					<path class="st1" d="M127.7,179.2c0.1,0.1-4.1,3.1-9.2,6.6c-5.2,3.5-9.4,6.3-9.5,6.1s4-3.1,9.2-6.6
						C123.4,181.8,127.6,179.1,127.7,179.2z"/>
				</g>
			</g>
		</g>
	</g>
	<g>
		<g>
			<g>
				<g>
					<path class="st1" d="M132.8,180.1c0.1,0.1-2.9,2.9-6.8,6.1s-7,5.9-7.1,5.8c-0.1-0.1,2.9-2.9,6.8-6.1
						C129.5,182.5,132.7,180,132.8,180.1z"/>
				</g>
			</g>
		</g>
	</g>
</g>
<g id="Background_Simple" class="st4">
	<path class="st5" d="M660,133.6c-15.3-48.3-53.3-89.5-101.2-106c-47.9-16.5-104.6-6.8-142.5,26.9c-28.2,25.1-47.5,63-83.2,75.1
		c-28,9.5-58.4,0.4-87.7-3.6c-45.3-6.2-93.6,0.8-131.3,26.6C76.4,178.4,51.4,224.7,57.8,270s46.2,82.8,91.9,80.2l404.8-0.9
		c39.2-3.3,71.3-33.9,90.1-68.5C668.6,236.2,675.4,181.9,660,133.6z"/>
</g>
<g id="Icons" class="st4">
	<g class="st6">
		<g>
			<g>
				<g>
					<path class="st7" d="M494-32.8c-1.1-8.8-8.5-16.9-17.3-16.9c-5.2,0-10.2,2.7-13.7,6.5c-1.6,1.7-2.6,2.9-3.5,4.1
						c-0.6-1.4-1.4-2.8-2.6-4.7c-2.7-4.4-7.1-8.1-12.2-9.1c-8.6-1.7-17.5,4.8-20.3,13.2s-0.5,17.8,4.1,25.3s12.5,17.4,27,22.3
						c10-1.3,23.5-10.2,29.4-16.7C490.9-15.3,495-24.1,494-32.8z"/>
				</g>
			</g>
		</g>
		<g>
			<g>
				<g>
					<g>
						<path class="st2" d="M490.8-17.1c0,0-0.1,0-0.3,0c-0.2,0-0.5,0-0.8-0.1c-0.8-0.1-1.9-0.2-3.3-0.3c-2.9-0.3-7-0.6-12-1.1
							l0.2-0.1c-1.5,3.8-3.1,8.2-5,13l-0.3,0.8l-0.2-0.8c-1.5-6.3-3.2-13.4-5-20.9c-0.5-2.3-1.1-4.6-1.6-6.8l0.5,0.1
							c-3.3,4.5-6.4,8.7-9.2,12.6l-0.1,0.1l-0.1,0c-8.6-0.9-15.9-1.7-21.1-2.2c-2.5-0.3-4.5-0.5-6-0.7c-0.7-0.1-1.2-0.2-1.6-0.2
							c-0.4-0.1-0.5-0.1-0.5-0.1c0,0,0.2,0,0.5,0c0.4,0,0.9,0.1,1.6,0.1c1.4,0.1,3.5,0.3,6,0.5c5.2,0.5,12.5,1.2,21.1,2l-0.2,0.1
							c2.8-3.9,5.9-8.1,9.1-12.6l0.4-0.5l0.1,0.6c0.5,2.2,1.1,4.5,1.6,6.8c1.8,7.5,3.5,14.6,5,20.9l-0.5,0c1.9-4.8,3.6-9.2,5.1-13
							l0.1-0.2l0.2,0c5,0.5,9.1,1,12,1.3c1.4,0.2,2.5,0.3,3.3,0.4c0.3,0.1,0.6,0.1,0.8,0.1C490.7-17.1,490.8-17.1,490.8-17.1z"/>
					</g>
				</g>
			</g>
		</g>
	</g>
	<g class="st6">
		<g>
			<g>
				<rect x="270.2" y="21.9" class="st7" width="6.6" height="29.6"/>
			</g>
			<g>
				<rect x="258.7" y="33.3" class="st7" width="29.6" height="6.6"/>
			</g>
		</g>
		<g>
			<g>
				<path class="st7" d="M298.1,36.7c0,0,0-0.1,0-0.4c0-0.3,0-0.7-0.1-1.2c0-0.3,0-0.6-0.1-0.9c0-0.3-0.1-0.7-0.2-1
					c-0.1-0.7-0.2-1.6-0.5-2.5c-0.4-1.9-1.3-4.2-2.7-6.5c-1.4-2.4-3.5-4.8-6.2-6.9c-2.8-2.1-6.3-3.8-10.3-4.6
					c-4-0.7-8.5-0.6-12.8,1.1c-1.1,0.3-2.1,0.9-3.2,1.4c-1,0.6-2.1,1.2-3,1.9c-1,0.7-1.9,1.5-2.8,2.3c-0.8,0.9-1.7,1.8-2.4,2.8
					c-1.5,2-2.7,4.3-3.5,6.7c-0.8,2.4-1.2,5.1-1.3,7.7c0,2.6,0.5,5.3,1.3,7.7c0.8,2.5,2,4.7,3.5,6.7c0.7,1,1.6,1.9,2.4,2.8
					c0.9,0.8,1.8,1.7,2.8,2.4c0.9,0.8,2,1.3,3,1.9c1.1,0.5,2.1,1.1,3.2,1.4c4.3,1.6,8.8,1.8,12.8,1.1c4-0.7,7.5-2.5,10.3-4.6
					c2.8-2.1,4.8-4.6,6.2-6.9c1.4-2.4,2.3-4.6,2.7-6.5c0.3-0.9,0.4-1.8,0.5-2.5c0.1-0.4,0.1-0.7,0.2-1c0-0.3,0-0.6,0.1-0.9
					c0-0.5,0.1-0.9,0.1-1.2C298.1,36.9,298.1,36.7,298.1,36.7s0,0.1,0,0.4c0,0.3,0,0.7,0,1.2c0,0.3,0,0.6,0,0.9c0,0.3-0.1,0.7-0.1,1
					c-0.1,0.8-0.2,1.6-0.5,2.6c-0.4,1.9-1.3,4.2-2.7,6.6c-1.4,2.4-3.5,4.9-6.3,7.1c-2.8,2.1-6.3,3.9-10.4,4.7
					c-4.1,0.7-8.7,0.6-13.1-1.1c-1.1-0.4-2.2-0.9-3.3-1.4c-1-0.6-2.1-1.2-3.1-2c-1-0.7-1.9-1.6-2.8-2.4c-0.8-0.9-1.7-1.8-2.5-2.9
					c-1.5-2.1-2.8-4.4-3.6-6.9c-0.8-2.5-1.3-5.2-1.3-7.9c0-2.7,0.5-5.4,1.3-7.9c0.8-2.5,2.1-4.8,3.6-6.9c0.7-1.1,1.6-2,2.5-2.9
					c0.9-0.8,1.8-1.7,2.8-2.4c1-0.8,2-1.3,3.1-2c1.1-0.5,2.1-1.1,3.3-1.4c4.4-1.7,9-1.8,13.1-1.1c4.1,0.7,7.6,2.6,10.4,4.7
					c2.8,2.2,4.9,4.7,6.3,7.1c1.4,2.4,2.3,4.7,2.7,6.6c0.3,0.9,0.4,1.8,0.5,2.6c0,0.4,0.1,0.7,0.1,1c0,0.3,0,0.6,0,0.9
					c0,0.5,0,0.9,0,1.2C298.1,36.6,298.1,36.7,298.1,36.7z"/>
			</g>
		</g>
	</g>
</g>
<g id="Character_3">
	<g>
		<path class="st8" d="M602.7,240.5c0,0,29.3-7,30.2-8.2l-24.1-62c-3.4-8.7-9-16.3-16.7-21.6c-3.5-2.4-7.3-4.4-11.4-5.7
			c-15.6-5.3-28.4-4.4-28.4-4.4l-40.6-2.2c-12.6,0.7-23.4,4.4-32,8.9c-13.7,7-24.3,18.9-30.1,33.2L431.3,224l46,9.6l1.8,48.9
			l-6.9,67.5H599L598.1,243l0,0L602.7,240.5z"/>
	</g>
	<g class="st9">
		<g>
			<path class="st10" d="M627.9,224.2c0,0.1-7.5,2.6-17,5.5c-9.4,2.9-17.1,5.2-17.1,5s7.5-2.6,17-5.5
				C620.2,226.3,627.8,224.1,627.9,224.2z"/>
		</g>
	</g>
	<g>
		<g>
			<path class="st11" d="M495.1,180.6c0,0-0.3-0.4-0.8-1.1c-0.5-0.7-1.2-1.7-2.1-2.9c-0.9-1.2-2.1-2.6-3.5-4c-1.4-1.4-3-2.9-4.8-4.4
				c-1.8-1.4-3.6-2.7-5.3-3.7c-1.7-1-3.3-1.9-4.7-2.5c-1.4-0.6-2.5-1.1-3.3-1.4c-0.8-0.3-1.2-0.5-1.2-0.5s0.5,0.1,1.3,0.4
				c0.8,0.3,2,0.7,3.4,1.3c1.4,0.6,3,1.4,4.8,2.4c1.7,1,3.6,2.3,5.4,3.7c1.8,1.5,3.4,3,4.8,4.5c1.4,1.5,2.5,2.9,3.4,4.1
				c0.9,1.2,1.6,2.3,2,3C494.9,180.2,495.1,180.6,495.1,180.6z"/>
		</g>
	</g>
	<g>
		<g>
			<path class="st11" d="M489.1,195.4c0.1,0-1.3,15-3.2,33.3c-1.9,18.4-3.5,33.3-3.7,33.3c-0.1,0,1.3-14.9,3.2-33.4
				C487.3,210.3,489,195.4,489.1,195.4z"/>
		</g>
	</g>
	<g>
		<g>
			<path class="st11" d="M589,167.8c-0.1,0-0.3-1.2-0.7-3s-1-4.4-2-7.2c-1-2.7-2.1-5.1-3-6.8s-1.5-2.7-1.4-2.8c0,0,0.2,0.2,0.5,0.6
				c0.3,0.4,0.7,1.1,1.2,1.9c1,1.7,2.2,4.1,3.2,6.8c1,2.8,1.6,5.4,1.9,7.3c0.2,1,0.3,1.7,0.3,2.3C589,167.4,589,167.7,589,167.8z"/>
		</g>
	</g>
	<g>
		<g>
			<path class="st11" d="M591.6,220c0,0-0.1-0.5-0.3-1.5s-0.3-2.3-0.4-4c-0.3-3.4-0.7-8.1-0.9-13.3c-0.2-5.2-0.2-9.9-0.1-13.4
				c0-1.7,0.1-3.1,0.2-4c0.1-1,0.1-1.5,0.1-1.5c0,0,0.1,0.5,0.1,1.5c0,1,0,2.4,0,4c0,3.4,0,8.1,0.2,13.3s0.5,9.9,0.7,13.3
				c0.1,1.6,0.2,3,0.3,4C591.6,219.4,591.6,220,591.6,220z"/>
		</g>
	</g>
	<g>
		<path class="st10" d="M530.1,211.2c-10.7,0.6-21.4,0.4-32-0.6v4.2h32V211.2z"/>
	</g>
	<g class="st9">
		<g>
			<path class="st10" d="M562,142.1c0,0,0,0.2,0.1,0.6c0.1,0.4,0.2,1.1,0.3,1.8c0.2,1.6,0.5,4,0.7,7c0.5,6,0.9,14.5,1,24.6l0,0.4
				l-0.3-0.2c-6.4-3.1-13.5-6.5-21-10.2c-14.2-7.1-27-13.5-36.4-18.2c-4.6-2.3-8.4-4.2-11-5.6c-1.3-0.6-2.3-1.2-3-1.5
				c-0.3-0.2-0.6-0.3-0.8-0.4c-0.2-0.1-0.3-0.1-0.3-0.2c0,0,0.1,0,0.3,0.1c0.2,0.1,0.5,0.2,0.8,0.4c0.7,0.4,1.7,0.8,3,1.4
				c2.7,1.3,6.4,3.1,11.1,5.4c9.3,4.6,22.2,11,36.4,18.1c7.4,3.7,14.6,7.1,21,10.2l-0.3,0.2c-0.1-10.1-0.5-18.6-0.8-24.6
				c-0.2-3-0.4-5.4-0.6-7c-0.1-0.8-0.2-1.4-0.2-1.9C562,142.3,561.9,142.1,562,142.1z"/>
		</g>
	</g>
	<g class="st9">
		<g>
			<path class="st10" d="M485.5,228.5c0,0-0.2,0-0.5-0.1c-0.4-0.1-0.9-0.2-1.5-0.4c-1.4-0.4-3.2-0.8-5.5-1.4
				c-4.6-1.2-11-2.8-18.1-4.5c-7.1-1.7-13.5-3.2-18.1-4.2c-2.3-0.5-4.1-1-5.5-1.3c-0.6-0.1-1.1-0.3-1.5-0.4
				c-0.3-0.1-0.5-0.1-0.5-0.2c0,0,0.2,0,0.5,0.1c0.4,0.1,0.9,0.2,1.5,0.3c1.3,0.2,3.2,0.6,5.5,1.1c4.7,1,11.1,2.4,18.2,4.1
				s13.4,3.4,18,4.7c2.3,0.6,4.1,1.2,5.4,1.5c0.6,0.2,1.1,0.3,1.5,0.5C485.4,228.4,485.6,228.5,485.5,228.5z"/>
		</g>
	</g>
	<g>
		<g>
			<g>
				<path class="st11" d="M556.4,134.5c0-0.1,2.8,1.3,5.4,5.2c2.6,3.9,5,10,6.4,17c0.7,3.5,1,6.9,1.2,10c0,1.5,0.1,3,0,4.4
					c-0.1,1.4-0.1,2.6-0.2,3.8c-0.1,1.1-0.2,2.2-0.3,3.1c-0.1,0.9-0.3,1.7-0.4,2.3c-0.2,1.3-0.4,2-0.5,2c-0.1,0,0-0.7,0.1-2
					c0.1-0.7,0.1-1.5,0.2-2.3c0-0.9,0.1-2,0.2-3.1c0.1-1.1,0-2.4,0.1-3.8c0-1.4-0.1-2.8-0.1-4.3c-0.2-3-0.6-6.4-1.2-9.8
					c-1.3-6.9-3.7-12.9-6-16.8c-1.2-1.9-2.4-3.3-3.3-4.2C556.9,135,556.3,134.6,556.4,134.5z"/>
			</g>
		</g>
		<g>
			<g>
				<path class="st11" d="M510.9,134.8c0.1,0.1-0.7,1.1-2.1,3s-3.2,4.9-4.7,8.8c-1.6,3.9-2.8,8.8-3.5,14.4c-0.7,5.5-1,11.8-1.5,18.2
					c-0.3,6.5-0.3,12.7-0.4,18.3c0,5.6,0,10.7,0,15c0,4.3-0.1,7.7-0.2,10.1c-0.1,2.4-0.3,3.7-0.4,3.7s-0.2-1.3-0.2-3.7
					c-0.1-2.4-0.2-5.9-0.3-10.1c-0.1-4.3-0.3-9.3-0.3-15c-0.1-5.6-0.1-11.9,0.2-18.4c0.4-6.5,0.8-12.7,1.6-18.3
					c0.8-5.6,2.1-10.6,3.9-14.6c1.7-4,3.7-6.9,5.2-8.7C509.8,135.6,510.8,134.7,510.9,134.8z"/>
			</g>
		</g>
		<g>
			<g>
				<path class="st11" d="M578.1,218.4c-0.1,0-0.1-1.2-0.2-3.3c-0.1-2.1-0.1-5.2-0.2-9c0-1.9,0-4,0-6.2c0-2.2,0-4.6-0.1-7.1
					c-0.2-2.4-0.8-5-2.5-7c-1.7-2-4.3-3.3-7-3.3c-2.8,0-5.4,1.1-7.4,2.9c-2,1.7-3.1,4.1-3.7,6.5c-0.6,2.4-0.9,4.8-1.3,7
					c-0.3,2.2-0.7,4.3-1,6.1c-0.6,3.8-1.1,6.8-1.5,8.9s-0.6,3.3-0.7,3.2s0-1.2,0.3-3.3c0.3-2.1,0.6-5.2,1.2-8.9
					c0.3-1.9,0.5-4,0.8-6.2c0.3-2.2,0.6-4.6,1.2-7.1c0.6-2.5,1.8-5.1,4-7c2.1-1.9,5-3.2,8.1-3.1c3.1,0,6,1.5,7.8,3.7
					c1.9,2.2,2.6,5,2.7,7.6c0.2,2.6,0,4.9,0,7.2c0,2.2,0,4.3-0.1,6.2c0,3.8-0.1,6.9-0.2,9C578.3,217.2,578.2,218.4,578.1,218.4z"/>
			</g>
		</g>
		<g>
			<path class="st11" d="M568.5,172.7c-0.3,3.5-1.5,7.4-3.9,10c2.1-0.5,4.3-0.4,6.5,0.1c-1.5-3-1.8-6.7-1.7-10.1"/>
		</g>
		<g>
			<g>
				<path class="st11" d="M578.2,195.4c-0.2,0-0.3-1.7-1.6-4c-0.6-1.1-1.6-2.4-2.9-3.5c-1.3-1.1-3-2-4.9-2.3
					c-1.9-0.3-3.8-0.1-5.4,0.5c-1.6,0.6-2.9,1.5-3.9,2.3c-2,1.8-2.6,3.4-2.8,3.3c-0.1,0,0.3-1.8,2.2-3.8c1-1,2.3-2,4-2.7
					c1.7-0.7,3.8-1,5.9-0.7c2.1,0.4,4,1.4,5.4,2.6c1.4,1.2,2.3,2.6,2.9,3.9C578.4,193.6,578.3,195.4,578.2,195.4z"/>
			</g>
		</g>
	</g>
	<g>
		<g>
			<path class="st12" d="M604.9,308.7c6,0,11.3-4.3,14.1-9.5c2.8-5.3,3.5-11.4,3.8-17.3c0.7-15.7-1.2-31.6-5.7-46.7l-26.1,4.6
				l7.1,70.3L604.9,308.7z"/>
		</g>
		<g>
			<g>
				<polygon class="st11" points="499.4,317.5 584.3,314.4 605,214.8 515.5,219.8 				"/>
			</g>
			<g>
				<path class="st13" d="M543.1,218l1.3-2.5l6.8-0.5c0,0,1.7-4.5,11.4-4.9c8.7-0.4,9,4,9,4h4.7v2.1L543.1,218z"/>
			</g>
		</g>
		<g>
			<g>
				<path class="st12" d="M590.5,285.4l6.4-1.9c1.2-0.4,2.5-0.4,3.7-0.2l0,0c1.5,0.3,2.9,1,4,2.1c2.1,2.1,5.6,5.6,6.1,6.6
					c0.7,1.5,0.7,4.1,0,5.1c-0.7,1,1.6,5.9,1.3,7.6c-0.3,1.6-0.7,3.3-1.3,4c-0.6,0.7,0,3-1.4,4.8c-1.4,1.8-2.7,2.9-2.7,2.9
					s-17.7,0.8-19.4,0s-4.8-4-4.8-4s-1.6-2.9,0.9-3.2l-10.1-3.9c-1.2-0.5-1.9-1.8-1.5-3c0.2-0.4,0.4-0.8,0.9-1c0,0-4.5-1.4-5.6-1.9
					c-2.1-0.9-2.9-5.8,1.4-5.2c2.3,0.3,5.4,1,5.4,1s-1.7-2.7,0.7-4.3c1.4-1,7.7,0.2,7.7,0.2L590.5,285.4L590.5,285.4z"/>
			</g>
			<g>
				<g>
					<path class="st14" d="M592.7,311.9c0,0.1-2.4,0-5.2-0.8c-2.8-0.8-4.9-2-4.8-2.2c0.1-0.1,2.2,0.9,5,1.7
						C590.4,311.4,592.8,311.8,592.7,311.9z"/>
				</g>
			</g>
			<g>
				<g>
					<path class="st14" d="M588.9,305.6c0,0.1-3.7-0.7-8.2-1.8s-8.1-2.2-8.1-2.3c0-0.1,3.7,0.7,8.2,1.8
						C585.3,304.5,588.9,305.5,588.9,305.6z"/>
				</g>
			</g>
			<g>
				<g>
					<path class="st14" d="M591,299.4c0,0.1-4-0.7-8.8-1.8c-4.8-1.1-8.8-2.2-8.7-2.3c0-0.1,4,0.7,8.8,1.8
						C587.1,298.2,591,299.2,591,299.4z"/>
				</g>
			</g>
			<g>
				<g>
					<path class="st14" d="M597.5,291.3c0,0.1-0.8,0.3-2.3,0.7c-0.8,0.2-1.6,0.4-2.5,0.6c-0.5,0.1-1,0.2-1.5,0.4
						c-0.5,0.1-1.1,0.2-1.7,0.2c-0.6,0-1.1-0.1-1.7-0.3c-0.5-0.1-1-0.2-1.5-0.3c-0.9-0.2-1.7-0.4-2.5-0.6c-1.4-0.4-2.3-0.6-2.3-0.7
						s0.9,0.1,2.4,0.3c0.8,0.1,1.6,0.3,2.5,0.5c1,0.2,2,0.5,3.1,0.6c1.1,0.1,2.1-0.3,3-0.5c0.9-0.2,1.8-0.4,2.5-0.5
						C596.6,291.4,597.5,291.2,597.5,291.3z"/>
				</g>
			</g>
			<g>
				<g>
					<path class="st14" d="M598.7,294.7c0,0,0.3,0.2,0.5,0.7c0.2,0.5,0.3,1.2,0.1,2c-0.2,0.8-0.8,1.3-1.2,1.6
						c-0.4,0.3-0.8,0.3-0.8,0.3c-0.1-0.1,1-0.7,1.5-2S598.5,294.8,598.7,294.7z"/>
				</g>
			</g>
			<g>
				<g>
					<path class="st14" d="M598.3,301.5c0.1-0.1,0.5,0.6,0.5,1.6c0,1-0.5,1.6-0.7,1.6c-0.1-0.1,0.1-0.7,0.1-1.6
						C598.3,302.3,598.2,301.6,598.3,301.5z"/>
				</g>
			</g>
			<g>
				<g>
					<path class="st14" d="M598.4,309c0.1,0,0.4,0.4,0.3,1.1c-0.1,0.6-0.6,1-0.7,0.9c-0.1-0.1,0.1-0.5,0.2-1
						C598.3,309.4,598.3,309,598.4,309z"/>
				</g>
			</g>
			<g>
				<g>
					<path class="st14" d="M600.3,290.9c0,0.1-0.7,0-1.7-0.1c-0.6-0.1-1.2-0.1-1.8-0.2c-0.7-0.1-1.4-0.2-2.2-0.1
						c-0.7,0.1-1.4,0.5-1.9,0.9c-0.5,0.4-1,0.8-1.5,1.1c-0.9,0.6-1.6,0.6-1.6,0.6c0-0.1,0.6-0.3,1.4-0.9c0.8-0.6,1.8-1.8,3.6-2.1
						c0.4,0,0.8-0.1,1.2,0c0.4,0,0.7,0.1,1.1,0.2c0.6,0.1,1.2,0.2,1.8,0.4C599.7,290.7,600.3,290.8,600.3,290.9z"/>
				</g>
			</g>
		</g>
		<g>
			<g>
				<path class="st14" d="M610.5,309c0,0,0.2-0.5,0.5-1.3c0.3-0.8,0.7-2,0.7-3.5c0-0.8-0.2-1.6-0.4-2.5c-0.2-0.9-0.6-1.8-0.8-2.8
					c-0.3-1.1,0.1-2.2,0.2-3.3c0.2-1.1-0.1-2.2-0.6-3.2s-1.2-2-1.8-2.9c-0.7-0.9-1.4-1.7-2-2.5c-1.3-1.5-2.8-2.7-4.2-3.3
					c-1.4-0.6-2.7-0.6-3.5-0.5c-0.8,0.1-1.3,0.3-1.3,0.3c0,0,0.1-0.1,0.3-0.2c0.2-0.1,0.5-0.2,1-0.3c0.9-0.2,2.2-0.2,3.7,0.4
					c1.5,0.6,3,1.8,4.4,3.3c0.7,0.8,1.4,1.6,2.1,2.5c0.7,0.9,1.4,1.8,1.9,2.9c0.5,1.1,0.8,2.3,0.6,3.5c-0.2,1.1-0.5,2.1-0.3,3.1
					c0.2,1,0.6,1.9,0.8,2.8c0.2,0.9,0.3,1.8,0.3,2.6c0,1.6-0.5,2.8-0.9,3.6C610.8,308.6,610.6,309.1,610.5,309z"/>
			</g>
		</g>
		<g>
			<g>
				<path class="st12" d="M551.1,259.8l-69.8,11.1l3.1-36.4l-38.8-7.5l-4.7,53.9l-0.8,12.4c-0.5,8.4,3.3,16.4,10.1,21.3l0,0
					c6.2,4.4,14.2,5.6,21.4,3.3l15-4.9l73.1-26"/>
			</g>
			<g>
				<g>
					<path class="st12" d="M593.3,252.3c0.3-1.2-0.8-2.3-2-2.3c-3.9,0-14.5,0-18.3,1.1c-4.6,1.3-21.9,8.7-21.9,8.7l7.3,27.1
						l26.5,0.3c0,0,9.7-4.5,9.8-6.4c0.1-1-0.2-3.6-0.2-3.6l2.9-1.6c4.4-2.8,1.6-8.1,1.6-8.1s3-1.7,3.2-4.7c0.2-3.2-2.3-4.5-2.3-4.5
						s1.2-4.3-1-5.4c-2.2-1.1-6,0.3-6,0.3C593,253,593.2,252.7,593.3,252.3z"/>
				</g>
				<g>
					<g>
						<path class="st14" d="M594.8,252.7c0,0-0.3,0.1-0.8,0.3c-0.5,0.1-1.3,0.3-2.3,0.5c-2,0.4-4.7,0.6-7.7,1
							c-3,0.3-5.7,0.7-7.6,1.1c-1.9,0.5-3,1-3,1c0,0,0.2-0.2,0.7-0.5c0.5-0.3,1.2-0.6,2.2-0.9c1.9-0.6,4.6-1,7.6-1.3
							c3-0.3,5.7-0.6,7.7-0.8C593.6,252.9,594.8,252.6,594.8,252.7z"/>
					</g>
				</g>
				<g>
					<g>
						<path class="st14" d="M599.8,258.1c0,0.1-0.7,0.5-1.9,1c-1.2,0.5-2.9,1-4.8,1.4c-1.9,0.4-3.7,0.7-5,0.8
							c-1.3,0.2-2.1,0.2-2.1,0.2c0-0.2,3.1-0.7,6.9-1.5c1.9-0.4,3.6-0.9,4.8-1.2C599,258.4,599.8,258.1,599.8,258.1z"/>
					</g>
				</g>
				<g>
					<g>
						<path class="st14" d="M599,267.5c0,0.1-2.4,1.2-5.7,1.9c-3.3,0.7-6,0.8-6,0.7c0-0.1,2.6-0.5,5.8-1.2
							C596.5,268.2,599,267.4,599,267.5z"/>
					</g>
				</g>
				<g>
					<g>
						<path class="st14" d="M597.4,275.6c0,0.1-1.8,1-4.4,1.6s-4.6,0.7-4.6,0.6c0-0.1,2-0.5,4.5-1.1
							C595.4,276.1,597.4,275.4,597.4,275.6z"/>
					</g>
				</g>
				<g>
					<g>
						<path class="st14" d="M583.6,270.8c0,0.1-0.3,0.2-0.8,0.3c-0.5,0-1.3-0.1-2-0.6s-1.1-1.2-1.2-1.7s-0.1-0.9,0-0.9
							c0.1,0,0.3,1.3,1.5,2.1C582.3,270.9,583.6,270.6,583.6,270.8z"/>
					</g>
				</g>
				<g>
					<g>
						<path class="st14" d="M583,279.1c0,0.1-1,0.2-1.9-0.6c-0.9-0.8-1-1.9-0.8-1.9c0.2,0,0.4,0.8,1.2,1.5
							C582.2,278.8,583,279,583,279.1z"/>
					</g>
				</g>
				<g>
					<g>
						<path class="st14" d="M580,262.1c0.1,0.1-0.7,0.4-1.4-0.1c-0.7-0.5-0.7-1.3-0.5-1.3c0.2,0,0.3,0.5,0.8,0.9
							C579.4,261.9,579.9,262,580,262.1z"/>
					</g>
				</g>
				<g>
					<g>
						<path class="st14" d="M551.1,259.8c0,0,0.1,0,0.2-0.1c0.2-0.1,0.4-0.2,0.6-0.3c0.6-0.3,1.4-0.6,2.5-1.1
							c2.2-0.9,5.3-2.3,9.3-3.9c2-0.8,4.2-1.7,6.6-2.6c1.2-0.4,2.4-0.9,3.8-1.2c1.4-0.3,2.8-0.4,4.2-0.5c2.9-0.2,6-0.3,9.2-0.4
							c0.8,0,1.6,0,2.4,0c0.4,0,0.8,0,1.2,0c0.4,0,0.9,0,1.3,0.3c0.8,0.4,1.4,1.4,1.1,2.4c-0.1,0.2-0.2,0.3-0.3,0.4
							c-0.1,0.1-0.2,0.1-0.3,0.2c-0.2,0.1-0.4,0.2-0.6,0.3c-0.4,0.2-0.8,0.3-1.3,0.4c-0.1,0-0.3,0-0.3-0.2c0-0.1,0-0.3,0.2-0.3
							c1.1-0.3,2.2-0.6,3.3-0.7c1.1-0.2,2.3-0.3,3.5-0.1c0.6,0.1,1.2,0.3,1.7,0.7c0.5,0.5,0.7,1.1,0.8,1.7c0.2,1.2,0.1,2.5-0.2,3.6
							l-0.1-0.3c0.6,0.3,1.1,0.8,1.5,1.3c1,1.4,1.3,3.2,0.8,4.7c-0.5,1.6-1.7,2.8-3,3.6l0.1-0.3c0.7,1.5,1,3,0.8,4.6
							c-0.2,1.6-1.2,3-2.5,3.8l0,0c-1,0.5-2,1-2.9,1.6l0.1-0.2c0.1,0.7,0.1,1.4,0.2,2.1c0,0.4,0,0.7,0,1c0,0.2,0,0.4,0,0.5
							c0,0.2-0.1,0.4-0.2,0.6c-0.4,0.6-1,1-1.5,1.4c-0.5,0.4-1.1,0.8-1.7,1.1c-2.2,1.4-4.5,2.5-6.6,3.5c0,0-0.1,0-0.1,0
							c-8-0.1-14.7-0.2-19.3-0.3c-2.3,0-4.1-0.1-5.3-0.1c-0.6,0-1,0-1.4,0c-0.3,0-0.5,0-0.5,0s0.2,0,0.5,0c0.3,0,0.8,0,1.4,0
							c1.3,0,3.1,0,5.3,0c4.7,0,11.3,0.1,19.3,0.1l-0.1,0c2.1-1,4.3-2.1,6.5-3.5c0.5-0.3,1.1-0.7,1.6-1.1c0.5-0.4,1-0.8,1.4-1.3
							c0.1-0.1,0.1-0.3,0.1-0.4c0-0.2,0-0.3,0-0.5c0-0.3,0-0.7,0-1c0-0.7-0.1-1.4-0.2-2.1c0-0.1,0-0.2,0.1-0.2c1-0.5,1.9-1,2.9-1.6
							l0,0c1.2-0.8,2.1-2,2.3-3.4c0.2-1.4-0.2-3-0.8-4.3c-0.1-0.1,0-0.3,0.1-0.3c1.2-0.8,2.3-1.9,2.8-3.3c0.5-1.4,0.2-3.1-0.7-4.3
							c-0.4-0.5-0.8-0.9-1.3-1.1c-0.1-0.1-0.2-0.2-0.1-0.3c0.3-1.1,0.4-2.3,0.2-3.4c-0.1-0.5-0.3-1.1-0.7-1.4
							c-0.4-0.4-0.9-0.5-1.4-0.6c-1.1-0.2-2.2,0-3.3,0.1c-1.1,0.2-2.2,0.4-3.2,0.7l-0.1-0.5c0.4-0.1,0.8-0.3,1.2-0.4
							c0.2-0.1,0.4-0.2,0.6-0.3c0.2-0.1,0.3-0.3,0.4-0.2c0-0.3,0-0.7-0.2-1c-0.2-0.3-0.4-0.6-0.8-0.8c-0.3-0.2-0.7-0.2-1.1-0.2
							c-0.4,0-0.8,0-1.2,0c-0.8,0-1.6,0-2.4,0c-3.2,0-6.3,0.1-9.2,0.3c-1.4,0.1-2.8,0.3-4.2,0.5c-1.3,0.2-2.6,0.7-3.8,1.1
							c-2.4,0.9-4.6,1.7-6.6,2.5c-3.9,1.6-7.1,2.9-9.3,3.8c-1.1,0.4-1.9,0.8-2.5,1c-0.3,0.1-0.5,0.2-0.7,0.3
							C551.1,259.8,551.1,259.8,551.1,259.8z"/>
					</g>
				</g>
			</g>
			<g>
				<g>
					<path class="st14" d="M481.6,270.8c0.1,0.1-2.8,1.5-5.2,4.5c-2.5,2.9-3.3,6-3.4,5.9c-0.1,0,0.1-0.8,0.5-2
						c0.5-1.2,1.3-2.8,2.5-4.2s2.6-2.6,3.7-3.2C480.8,271,481.5,270.7,481.6,270.8z"/>
				</g>
			</g>
		</g>
	</g>
	<g>
		<g>
			<g>
				<g>
					<g>
						<g>
							<g>
								<g>
									<g>
										<g>
											<path class="st12" d="M572.7,55.1c-1.4-18.3-16.7-32.4-35.1-32.5h-1.8C516.1,23.7,506,41,507.7,60.7l3.4,78.8
												c0.1,1.3,0.8,2.5,2,3.1l44.2,20.7l-1.4-41.3c0,0,18.9-2.9,19.2-21.8C575.3,90.9,574,72.1,572.7,55.1z"/>
										</g>
										<g>
											<g>
												<g>
													<g>
														<g>
															<g>
																<g>
																	<g>
																		<g>
																			<g>
																				<path class="st14" d="M556.1,121.8c0,0-12.1,0.7-24.8-7.3c0,0,5.8,13.6,24.7,12L556.1,121.8z"/>
																			</g>
																		</g>
																	</g>
																</g>
															</g>
														</g>
													</g>
												</g>
											</g>
										</g>
									</g>
								</g>
							</g>
							<g>
								<g>
									<g>
										<g>
											<g>
												<g>
													<g>
														<g>
															<g>
																<g>
																	<g>
																		<g>
																			<g>
																				<g>
																					<g>
																						<g>
																							<path class="st11" d="M566,66.8c0,1.4-1.1,2.6-2.6,2.7s-2.7-1-2.8-2.4c0-1.4,1.1-2.6,2.6-2.7
																								C564.7,64.3,565.9,65.4,566,66.8z"/>
																						</g>
																					</g>
																				</g>
																			</g>
																		</g>
																	</g>
																</g>
															</g>
														</g>
													</g>
													<g>
														<g>
															<g>
																<g>
																	<g>
																		<g>
																			<g>
																				<g>
																					<g>
																						<g>
																							<g>
																								<path class="st11" d="M568.6,64.3c-0.3,0.4-2.4-1.2-5.3-1.2c-2.9,0-5,1.4-5.3,1.1c-0.2-0.2,0.2-0.8,1.1-1.5
																									c0.9-0.7,2.5-1.3,4.3-1.3c1.8,0,3.3,0.7,4.2,1.4S568.8,64.1,568.6,64.3z"/>
																							</g>
																						</g>
																					</g>
																				</g>
																			</g>
																		</g>
																	</g>
																</g>
															</g>
														</g>
													</g>
												</g>
												<g>
													<g>
														<g>
															<g>
																<g>
																	<g>
																		<g>
																			<g>
																				<g>
																					<g>
																						<g>
																							<path class="st11" d="M537.4,67.7c0,1.4-1.1,2.6-2.6,2.7s-2.7-1-2.8-2.4c0-1.4,1.1-2.6,2.6-2.7
																								S537.3,66.3,537.4,67.7z"/>
																						</g>
																					</g>
																				</g>
																			</g>
																		</g>
																	</g>
																</g>
															</g>
														</g>
													</g>
													<g>
														<g>
															<g>
																<g>
																	<g>
																		<g>
																			<g>
																				<g>
																					<g>
																						<g>
																							<g>
																								<path class="st11" d="M540,64.8c-0.3,0.4-2.4-1.2-5.3-1.2c-2.9,0-5,1.4-5.3,1.1c-0.2-0.2,0.2-0.8,1.1-1.5
																									c0.9-0.7,2.5-1.3,4.3-1.3c1.8,0,3.3,0.7,4.2,1.4C539.9,64,540.2,64.6,540,64.8z"/>
																							</g>
																						</g>
																					</g>
																				</g>
																			</g>
																		</g>
																	</g>
																</g>
															</g>
														</g>
													</g>
												</g>
												<g>
													<g>
														<g>
															<g>
																<g>
																	<g>
																		<g>
																			<g>
																				<g>
																					<g>
																						<g>
																							<path class="st11" d="M550.5,86.4c0-0.2,1.8-0.5,4.7-0.8c0.7-0.1,1.5-0.2,1.6-0.7c0.2-0.5-0.1-1.3-0.5-2.2
																								c-0.7-1.8-1.4-3.7-2.2-5.7c-3-8.1-5.2-14.7-4.9-14.8c0.3-0.1,3,6.3,6.1,14.4c0.7,2,1.4,3.9,2.1,5.7
																								c0.3,0.8,0.8,1.8,0.4,2.9c-0.2,0.6-0.8,1-1.2,1.1c-0.5,0.1-0.9,0.1-1.3,0.2
																								C552.4,86.5,550.5,86.5,550.5,86.4z"/>
																						</g>
																					</g>
																				</g>
																			</g>
																		</g>
																	</g>
																</g>
															</g>
														</g>
													</g>
												</g>
												<g>
													<g>
														<g>
															<g>
																<g>
																	<g>
																		<g>
																			<g>
																				<g>
																					<g>
																						<g>
																							<path class="st11" d="M542,88.4c0.5,0,0.5,3.1,3.2,5.4c2.7,2.3,6.1,1.9,6.1,2.4c0,0.2-0.8,0.6-2.2,0.6
																								c-1.4,0-3.4-0.4-5.1-1.8c-1.6-1.4-2.3-3.2-2.5-4.5C541.4,89.1,541.8,88.3,542,88.4z"/>
																						</g>
																					</g>
																				</g>
																			</g>
																		</g>
																	</g>
																</g>
															</g>
														</g>
													</g>
												</g>
											</g>
										</g>
									</g>
									<g>
										<g>
											<g>
												<g>
													<g>
														<g>
															<g>
																<g>
																	<g>
																		<g>
																			<path class="st11" d="M540.8,53.4c-0.3,0.8-3.2,0.4-6.6,0.8c-3.4,0.3-6.2,1.3-6.6,0.6c-0.2-0.3,0.3-1.1,1.4-1.9
																				c1.1-0.8,2.9-1.5,4.9-1.7c2-0.2,3.9,0.1,5.2,0.6C540.3,52.4,540.9,53,540.8,53.4z"/>
																		</g>
																	</g>
																</g>
															</g>
														</g>
													</g>
												</g>
											</g>
										</g>
									</g>
									<g>
										<g>
											<g>
												<g>
													<g>
														<g>
															<g>
																<g>
																	<g>
																		<g>
																			<path class="st11" d="M567.5,55.9c-0.5,0.7-2.5,0-4.9-0.1c-2.4-0.1-4.5,0.4-4.9-0.3c-0.2-0.3,0.1-1,1-1.6
																				c0.9-0.6,2.3-1.1,4-1.1s3.1,0.7,3.9,1.3C567.5,54.9,567.8,55.6,567.5,55.9z"/>
																		</g>
																	</g>
																</g>
															</g>
														</g>
													</g>
												</g>
											</g>
										</g>
									</g>
								</g>
							</g>
						</g>
					</g>
				</g>
				<g>
					<g>
						<g>
							<g>
								<g>
									<g>
										<g>
											<g>
												<g>
													<g>
														<g>
															<path class="st12" d="M510.5,74.7c-0.3-0.1-13-3.9-12.6,9.1c0.4,12.9,13.3,9.9,13.3,9.5
																C511.3,92.9,510.5,74.7,510.5,74.7z"/>
														</g>
													</g>
												</g>
											</g>
										</g>
									</g>
								</g>
							</g>
						</g>
					</g>
					<g>
						<g>
							<g>
								<g>
									<g>
										<g>
											<g>
												<g>
													<g>
														<g>
															<g>
																<path class="st14" d="M508.3,88.5c-0.1,0-0.2,0.2-0.6,0.4c-0.4,0.2-1,0.3-1.7,0.1c-1.4-0.5-2.6-2.6-2.7-4.9
																	c-0.1-1.2,0.2-2.3,0.5-3.2c0.4-1,1-1.6,1.6-1.8c0.7-0.2,1.2,0.2,1.3,0.6c0.2,0.4,0.1,0.6,0.2,0.6
																	c0,0,0.3-0.2,0.2-0.8c-0.1-0.3-0.2-0.6-0.5-0.8c-0.3-0.2-0.8-0.4-1.3-0.3c-1,0.1-1.9,1-2.3,2.1
																	c-0.5,1-0.8,2.3-0.7,3.6c0.2,2.6,1.6,5,3.5,5.5c0.9,0.2,1.7-0.1,2-0.4C508.3,88.8,508.3,88.5,508.3,88.5z"/>
															</g>
														</g>
													</g>
												</g>
											</g>
										</g>
									</g>
								</g>
							</g>
						</g>
					</g>
				</g>
				<g>
					<path class="st11" d="M519,36.2l53.9,1.2c-1.7-3.7-4.7-6.7-7.9-9.2c-7-5.3-15.6-8.6-24.4-8.8c-8.8-0.2-26.7,10.6-33.1,16.6
						c-5.1,4.9-5.1,9.1-5.1,9.1c-0.8,7,3.1,14.9,4.7,21.8c0.8,3.5,2.3,14.3,2.3,14.3l0,0c3,0,4.1-2.4,3.6-5.3l-0.6-11.5
						c0,0,10.1-7.2,5.3-20.3C517.1,43,515.5,38.2,519,36.2z"/>
				</g>
			</g>
			<g>
				<g>
					<g>
						<path class="st14" d="M530.3,77.1c-0.2,0-0.3-0.1-0.4-0.3s0.1-0.4,0.3-0.4c0.2,0,0.3,0.1,0.4,0.3
							C530.6,76.9,530.5,77.1,530.3,77.1z"/>
					</g>
				</g>
			</g>
			<g>
				<g>
					<g>
						<path class="st14" d="M535.9,75.9c-0.2,0-0.3-0.1-0.4-0.3c0-0.2,0.1-0.4,0.2-0.5c0.2,0,0.3,0.1,0.4,0.3
							C536.2,75.6,536.1,75.8,535.9,75.9z"/>
					</g>
				</g>
			</g>
			<g>
				<g>
					<g>
						<path class="st14" d="M539.6,75.8c-0.2,0-0.3-0.2-0.4-0.5c0-0.3,0.1-0.5,0.3-0.6c0.2,0,0.3,0.2,0.4,0.5
							C539.9,75.5,539.8,75.8,539.6,75.8z"/>
					</g>
				</g>
			</g>
			<g>
				<g>
					<g>
						<path class="st14" d="M533.1,80.6c-0.2,0-0.3-0.1-0.3-0.2c0-0.1,0.1-0.2,0.3-0.2s0.3,0.1,0.3,0.2
							C533.4,80.5,533.2,80.6,533.1,80.6z"/>
					</g>
				</g>
			</g>
			<g>
				<g>
					<g>
						<path class="st14" d="M538.2,79.4c-0.2,0-0.3-0.1-0.3-0.3c0-0.2,0.1-0.4,0.3-0.4c0.2,0,0.3,0.1,0.3,0.3
							C538.5,79.3,538.3,79.4,538.2,79.4z"/>
					</g>
				</g>
			</g>
			<g>
				<g>
					<g>
						<path class="st14" d="M564.7,76.3c-0.2,0-0.3-0.1-0.4-0.3c0-0.2,0.1-0.4,0.2-0.4c0.2,0,0.3,0.1,0.4,0.3
							C565,76.1,564.8,76.3,564.7,76.3z"/>
					</g>
				</g>
			</g>
			<g>
				<g>
					<g>
						<path class="st14" d="M568.5,76c-0.2,0-0.3-0.1-0.4-0.4c0-0.2,0.1-0.4,0.3-0.4c0.2,0,0.3,0.1,0.4,0.4
							C568.8,75.8,568.6,76,568.5,76z"/>
					</g>
				</g>
			</g>
			<g>
				<g>
					<g>
						<path class="st14" d="M561.3,76.4c-0.2,0-0.3-0.1-0.4-0.2c0-0.1,0.1-0.3,0.3-0.3c0.2,0,0.3,0.1,0.4,0.2
							C561.6,76.2,561.5,76.4,561.3,76.4z"/>
					</g>
				</g>
			</g>
			<g>
				<g>
					<g>
						<path class="st14" d="M564.1,80.2c-0.2,0.1-0.4,0-0.4-0.2s0-0.4,0.1-0.5c0.2-0.1,0.4,0,0.4,0.2
							C564.3,79.9,564.3,80.1,564.1,80.2z"/>
					</g>
				</g>
			</g>
			<g>
				<g>
					<g>
						<path class="st14" d="M567.4,79.6c-0.2-0.1-0.3-0.2-0.2-0.4c0-0.1,0.2-0.2,0.4-0.2s0.3,0.2,0.2,0.4
							C567.7,79.5,567.5,79.6,567.4,79.6z"/>
					</g>
				</g>
			</g>
		</g>
		<g>
			<path class="st11" d="M507.2,36.8c-1.4-4.7,0-10,3-13.9c3-3.9,8-6.2,12.9-6c2.5,0.1,5,0.8,7.5,0.5c4.7-0.5,8.3-4.3,12.6-6.1
				c6.7-2.8,15.3-0.3,19.4,5.8c1.6,2.4,2.7,5.5,5.2,7c2.2,1.3,4.9,1.2,7.3,2c4.9,1.5,8.3,6.7,8.1,11.9c-0.3,5.1-3.9,9.9-8.6,11.9
				s-10.4,1.4-14.9-1.1c-4.1-2.3-7.7-6.1-12.4-6c-4.8,0.1-9,4.7-13.8,3.7c-2.5-0.5-4.4-2.4-6.2-4.2c-1.8-1.8-3.9-3.6-6.4-3.7
				s-3.8,3.3-2.9,5.7L507.2,36.8"/>
		</g>
		<g>
			<g>
				<path class="st13" d="M571.9,30.6c0,0,0,0.1-0.1,0.2s-0.2,0.3-0.3,0.5c-0.3,0.4-0.8,1.1-1.5,1.8c-0.8,0.7-1.8,1.4-3.2,1.9
					c-1.4,0.5-3.1,0.7-4.9,0.3c-1.8-0.4-3.7-1.3-5.2-2.9s-2.3-3.8-3.7-5.7c-0.7-0.9-1.5-1.8-2.6-2.4c-1.1-0.5-2.3-0.8-3.6-0.8
					c-1.3,0-2.5,0.4-3.7,1c-1.1,0.6-2.1,1.6-2.7,2.8c-0.7,1.2-1.1,2.5-1.9,3.6c-0.8,1.2-2.1,2.1-3.5,2.1c-1.4,0.1-2.7-0.4-3.8-1.1
					c-1.1-0.6-2-1.5-2.9-2.4c-1.7-1.7-3.3-3.3-5.3-3.8c-2-0.5-4,0.3-5.4,1.3c-1.5,1-2.4,2.4-3,3.7c-0.6,1.3-0.9,2.5-1.1,3.5
					s-0.3,1.8-0.4,2.3c-0.1,0.5-0.1,0.8-0.1,0.8c0,0,0-0.1,0-0.2s0-0.3,0-0.6c0-0.5,0.1-1.3,0.3-2.3s0.5-2.2,1-3.6
					c0.6-1.3,1.5-2.8,3-3.9c1.5-1.1,3.5-1.9,5.7-1.4c2.2,0.5,3.9,2.2,5.6,3.9c0.8,0.8,1.7,1.7,2.8,2.3c1,0.6,2.3,1.1,3.5,1
					c1.2-0.1,2.4-0.8,3.1-1.9c0.7-1.1,1.2-2.4,1.9-3.6c0.7-1.3,1.7-2.3,2.9-3c1.2-0.7,2.6-1,3.9-1.1c1.3,0,2.7,0.3,3.8,0.9
					c1.2,0.6,2.1,1.5,2.8,2.5c1.4,2,2.3,4.1,3.7,5.7c1.4,1.6,3.2,2.5,4.9,2.9c1.7,0.4,3.4,0.2,4.7-0.2c1.3-0.4,2.4-1.1,3.2-1.7
					C571.4,31.6,571.8,30.5,571.9,30.6z"/>
			</g>
		</g>
		<g>
			<g>
				<path class="st13" d="M581.7,30.8c0,0,0.2,0.4,0.2,1c0.1,0.7,0,1.7-0.3,2.9c-0.3,1.2-1,2.6-2,3.8s-2.5,2.4-4.3,3.1
					c-3.5,1.5-7,1.4-9.4,1.1c-1.2-0.2-2.2-0.4-2.8-0.6c-0.7-0.2-1-0.3-1-0.3c0-0.1,1.5,0.3,3.9,0.5c2.4,0.2,5.8,0.3,9.2-1.2
					c1.7-0.7,3.1-1.8,4.1-2.9c1-1.2,1.7-2.5,2-3.6C582,32.3,581.5,30.8,581.7,30.8z"/>
			</g>
		</g>
	</g>
	<g>
		<g>
			<g>
				<path class="st15" d="M497.7,204"/>
			</g>
		</g>
		<g>
			<g>
				<path class="st15" d="M497.7,225.1"/>
			</g>
		</g>
		<g>
			<g>
				<g>
					<path class="st1" d="M489.6,239.1c0.2,2.2,1.1,4.1,2.3,5.6s3.5,3,5.4,2.9c0,0,4.7,0.4,7.3-3.6c2.3-3.7,2.9-11.3,1-15.8
						c-1.3-3.1-4.1-6-7.5-6.1c-4.4-0.1-7.2,3.1-8.1,6.3"/>
				</g>
				<g>
					<g>
						<path class="st11" d="M490,228.4c0,0,0.1-0.8,0.8-2.2c0.4-0.6,0.9-1.4,1.7-2.2c0.8-0.7,1.8-1.4,3.1-1.8
							c0.7-0.2,1.3-0.3,2.1-0.3c0.7,0,1.5,0,2.3,0.3c1.5,0.5,3,1.5,4.1,2.9c1.1,1.4,2,3.1,2.4,5c0.4,1.9,0.6,3.9,0.5,5.9
							c-0.2,3.1-0.8,6.3-2.5,8.6c-0.9,1.2-2.1,2-3.3,2.5c-1.3,0.5-2.5,0.7-3.8,0.6h0c-1,0-1.9-0.3-2.7-0.7c-0.8-0.4-1.5-0.9-2-1.4
							c-1.1-1.1-1.8-2.3-2.2-3.3c-0.4-1-0.6-1.9-0.7-2.4c0-0.3-0.1-0.5-0.1-0.7c0-0.1,0-0.2,0-0.2c0.1,0,0.1,1.3,1,3.2
							c0.5,1,1.1,2.1,2.2,3.1c0.5,0.5,1.2,1,2,1.3c0.8,0.4,1.6,0.6,2.5,0.6h0h0c2.3,0.1,5-0.8,6.7-3c1.6-2.2,2.2-5.3,2.4-8.4
							c0.2-4-0.5-7.9-2.7-10.6c-1.1-1.3-2.4-2.3-3.8-2.8c-0.7-0.2-1.4-0.3-2.1-0.3c-0.7,0-1.4,0.1-2,0.3c-1.2,0.4-2.3,1-3,1.7
							c-0.8,0.7-1.3,1.4-1.7,2C490.3,227.6,490.1,228.4,490,228.4z"/>
					</g>
				</g>
			</g>
			<g>
				<g>
					<path class="st1" d="M487.3,239.3c0.2,2.2,1.1,4.1,2.3,5.6c1.2,1.5,3.5,3,5.4,2.9c0,0,4.7,0.4,7.3-3.6c2.3-3.7,2.9-11.3,1-15.8
						c-1.3-3.1-4.1-6-7.5-6.1c-4.4-0.1-7.2,3.1-8.1,6.3"/>
				</g>
				<g>
					<g>
						<path class="st11" d="M487.7,228.6c0,0,0.1-0.8,0.8-2.2c0.4-0.6,0.9-1.4,1.7-2.2c0.8-0.7,1.8-1.4,3.1-1.8
							c0.7-0.2,1.3-0.3,2.1-0.3c0.7,0,1.5,0,2.3,0.3c1.5,0.5,3,1.5,4.1,2.9c1.1,1.4,2,3.1,2.4,5c0.4,1.9,0.6,3.9,0.5,5.9
							c-0.2,3.1-0.8,6.3-2.5,8.6c-0.9,1.2-2.1,2-3.3,2.5c-1.3,0.5-2.5,0.7-3.8,0.6h0c-1,0-1.9-0.3-2.7-0.7c-0.8-0.4-1.5-0.9-2-1.4
							c-1.1-1.1-1.8-2.3-2.2-3.3c-0.4-1-0.6-1.9-0.7-2.4c0-0.3-0.1-0.5-0.1-0.7c0-0.1,0-0.2,0-0.2c0.1,0,0.1,1.3,1,3.2
							c0.5,1,1.1,2.1,2.2,3.1c0.5,0.5,1.2,1,2,1.3c0.8,0.4,1.6,0.6,2.5,0.6h0h0c2.3,0.1,5-0.8,6.7-3c1.6-2.2,2.2-5.3,2.4-8.4
							c0.2-4-0.5-7.9-2.7-10.6c-1.1-1.3-2.4-2.3-3.8-2.8c-0.7-0.2-1.4-0.3-2.1-0.3c-0.7,0-1.4,0.1-2,0.3c-1.2,0.4-2.3,1-3,1.7
							c-0.8,0.7-1.3,1.4-1.7,2C487.9,227.8,487.7,228.6,487.7,228.6z"/>
					</g>
				</g>
			</g>
			<g>
				<g>
					<path class="st1" d="M491.5,227.4c-2.2-0.4-4.4,1.1-5.4,3.1c-0.9,2-0.7,4.4,0,6.5c0.4,1.1,0.9,2.1,1.7,2.9s1.8,1.4,3,1.5
						c1.7,0,3.2-1.1,4.1-2.4c1.6-2.2,2.1-5.1,1.4-7.7c-0.5-1.7-1.7-3.5-3.5-3.6"/>
				</g>
				<g>
					<g>
						<path class="st11" d="M492.8,227.8c0,0,0.1,0,0.4,0c0.3,0,0.7,0.1,1.1,0.4c0.9,0.5,1.9,1.7,2.3,3.4c0.4,1.7,0.4,4-0.6,6.1
							c-0.5,1.1-1.2,2.1-2.2,2.9c-1,0.8-2.5,1.3-3.9,0.9c-1.4-0.4-2.4-1.4-3.1-2.5c-0.7-1.1-1-2.3-1.3-3.5c-0.5-2.3-0.1-4.6,1-6
							c1.1-1.5,2.5-2.1,3.5-2.2c0.5-0.1,0.9,0,1.1,0c0.3,0,0.4,0.1,0.4,0.1c0,0.1-0.5-0.1-1.5,0.1c-0.9,0.2-2.3,0.8-3.2,2.2
							c-1,1.4-1.3,3.5-0.8,5.7c0.2,1.1,0.6,2.3,1.3,3.3c0.6,1,1.6,1.9,2.8,2.3c1.2,0.4,2.5-0.1,3.4-0.8c1-0.7,1.6-1.7,2.1-2.7
							c1-2,1.1-4.2,0.7-5.8c-0.3-1.7-1.2-2.9-2-3.4C493.4,227.8,492.8,227.8,492.8,227.8z"/>
					</g>
				</g>
			</g>
			<g>
				<g>
					<path class="st11" d="M496.6,243.9c-0.1,0-0.2-0.3-0.5-0.7c-0.3-0.4-0.9-0.9-1.7-1.1c-0.8-0.2-1.5-0.3-2.1-0.3
						c-0.6,0-0.9-0.1-0.9-0.2s0.3-0.1,0.9-0.2c0.6,0,1.4-0.1,2.3,0.2c0.9,0.3,1.5,0.9,1.8,1.4C496.7,243.5,496.6,243.9,496.6,243.9z
						"/>
				</g>
			</g>
			<g>
				<g>
					<path class="st11" d="M497.4,226.1c0,0-0.2,0.4-0.6,0.7c-0.5,0.4-1.2,0.8-2.1,0.9c-0.9,0.2-1.7,0.1-2.3-0.1
						c-0.6-0.2-0.9-0.4-0.8-0.5c0-0.1,1.4,0.4,3,0.1C496.2,226.9,497.3,226,497.4,226.1z"/>
				</g>
			</g>
		</g>
	</g>
</g>
<g id="Character_1">
	<g>
		<g>
			<g>
				<g>
					<g>
						<path class="st11" d="M221.8,51.2c0.1-4.4-3.9-7.7-8-9.3c-4.1-1.6-8.6-2.2-12.2-4.6c-3.2-2.1-5.4-5.5-8.1-8.3
							c-6.6-6.7-17-9.5-26.2-7s-16.6,10.2-19,19.3c-1.6,6.2-0.5,13.5,4.4,17.7c5.7,4.8,14.1,3.7,21.4,2.2s15.5-3,21.6,1.3
							c3.7,2.6,5.8,6.8,8,10.6c2.2,3.9,5.1,7.8,9.3,9.3c4.2,1.5,10-1.1,10.1-5.5"/>
					</g>
				</g>
			</g>
			<g>
				<g>
					<path class="st11" d="M221.6,53.6c-0.5,3.6,2.2,6.9,4.8,9.5c2.6,2.6,5.6,5.3,6.1,9c0.5,4.3-2.6,8.5-1.7,12.7
						c0.6,2.7,2.6,4.7,3.9,7.1c1.8,3.4,1.9,7.5,0.8,11.2c-1.1,3.7-2.8,11.9-5.4,14.8c-7.1,7.9-18.3,14.7-28.7,17.1
						c-10.3,2.4-21.1,2.4-31.6,1.7c-8.7-0.5-18.6-0.1-25.8-12.1c-3.7-6.2-5.6-14.4-7.6-21.3c-1.7-6-3.2-12.4-1.4-18.3
						c1-3.5,3.1-6.6,4.1-10c1.3-4.3,0.8-9,1.3-13.5c1.1-9.7,7.1-18.8,15.7-23.5c8.6-4.8,19.4-5.1,28.3-0.9"/>
				</g>
			</g>
		</g>
		<g>
			<g>
				<g>
					<path class="st12" d="M144.5,68.5c0.8-12.4,9.1-27.7,21.5-26.3l38.7,9.9c3.8,0.4,6.6,3.6,6.5,7.4l-4.4,93.3
						c0.1,0,0.2,0,0.3,0.1c0,0-8.8,26.3-34.4,18.3c-5.1-1.6-7.4-7.1-8.4-12.8l-0.3,0c0-0.7,0-1.3,0-2c-0.8-6.6-0.1-12.8-0.1-12.8
						l0,0c-0.1-7.5-0.1-10.6-0.1-10.6c0,0-15.9-2.7-19.1-23.4C143.1,99.2,143.6,82.3,144.5,68.5z"/>
				</g>
			</g>
			<g>
				<g>
					<g>
						<g>
							<g>
								<g>
									<g>
										<g>
											<g>
												<g>
													<g>
														<g>
															<g>
																<g>
																	<g>
																		<g>
																			<g>
																				<g>
																					<path class="st11" d="M150.8,81c-0.1,1.4,1.1,2.6,2.6,2.7c1.5,0.1,2.7-1,2.8-2.4c0.1-1.4-1.1-2.6-2.6-2.7
																						C152,78.5,150.8,79.6,150.8,81z"/>
																				</g>
																			</g>
																		</g>
																	</g>
																</g>
															</g>
														</g>
													</g>
												</g>
												<g>
													<g>
														<g>
															<g>
																<g>
																	<g>
																		<g>
																			<g>
																				<g>
																					<g>
																						<path class="st11" d="M148.2,77.3c0.3,0.4,2.4-1.1,5.2-1.1c2.9,0,4.9,1.4,5.3,1.1c0.1-0.1-0.2-0.8-1.1-1.4
																							c-0.9-0.7-2.4-1.3-4.2-1.3c-1.8,0-3.3,0.7-4.1,1.3C148.3,76.5,148,77.2,148.2,77.3z"/>
																					</g>
																				</g>
																			</g>
																		</g>
																	</g>
																</g>
															</g>
														</g>
													</g>
												</g>
											</g>
											<g>
												<g>
													<g>
														<g>
															<g>
																<g>
																	<g>
																		<g>
																			<g>
																				<g>
																					<path class="st11" d="M178.9,81c-0.1,1.4,1.1,2.6,2.6,2.7c1.5,0.1,2.7-1,2.8-2.4c0.1-1.4-1.1-2.6-2.6-2.7
																						C180.1,78.5,178.9,79.6,178.9,81z"/>
																				</g>
																			</g>
																		</g>
																	</g>
																</g>
															</g>
														</g>
													</g>
												</g>
												<g>
													<g>
														<g>
															<g>
																<g>
																	<g>
																		<g>
																			<g>
																				<g>
																					<g>
																						<path class="st11" d="M176.3,77.9c0.3,0.4,2.4-1.1,5.2-1.1c2.9,0,4.9,1.4,5.3,1.1c0.1-0.1-0.2-0.8-1.1-1.4
																							c-0.9-0.7-2.4-1.3-4.2-1.3c-1.8,0-3.3,0.7-4.1,1.3C176.4,77.1,176.1,77.8,176.3,77.9z"/>
																					</g>
																				</g>
																			</g>
																		</g>
																	</g>
																</g>
															</g>
														</g>
													</g>
												</g>
											</g>
											<g>
												<g>
													<g>
														<g>
															<g>
																<g>
																	<g>
																		<g>
																			<g>
																				<g>
																					<path class="st11" d="M165.9,99.1c0-0.2-1.8-0.5-4.6-0.9c-0.7-0.1-1.4-0.2-1.5-0.7c-0.2-0.5,0.1-1.3,0.5-2.2
																						c0.7-1.8,1.4-3.6,2.2-5.6c3-7.9,5.2-14.4,4.9-14.5c-0.3-0.1-3,6.2-6,14.1c-0.7,1.9-1.4,3.8-2.1,5.6
																						c-0.3,0.8-0.8,1.8-0.4,2.9c0.2,0.6,0.7,0.9,1.2,1.1c0.5,0.1,0.9,0.1,1.2,0.2C164.1,99.3,165.9,99.3,165.9,99.1
																						z"/>
																				</g>
																			</g>
																		</g>
																	</g>
																</g>
															</g>
														</g>
													</g>
												</g>
											</g>
											<g>
												<g>
													<g>
														<g>
															<g>
																<g>
																	<g>
																		<g>
																			<g>
																				<path class="st14" d="M163.8,133c0,0,13.9,0.9,27.8-7.3c0,0-7,14.3-27.8,12.4L163.8,133z"/>
																			</g>
																		</g>
																	</g>
																</g>
															</g>
														</g>
													</g>
												</g>
											</g>
											<g>
												<g>
													<g>
														<g>
															<g>
																<g>
																	<g>
																		<g>
																			<g>
																				<path class="st14" d="M167.1,106c1-1.4,2.8-2.1,4.6-1.9c1.2,0.1,2.5,0.7,3.3,1.8c0.8,1,0.9,2.4,0.2,3.4
																					c-0.8,1.1-2.4,1.3-3.8,0.9s-2.5-1.3-3.6-2.2c-0.3-0.3-0.6-0.5-0.8-0.9c-0.2-0.3-0.2-0.8,0-1.1"/>
																			</g>
																		</g>
																	</g>
																</g>
															</g>
														</g>
													</g>
												</g>
											</g>
											<g>
												<g>
													<g>
														<g>
															<g>
																<g>
																	<g>
																		<g>
																			<g>
																				<g>
																					<path class="st11" d="M174.3,101.1c-0.5,0-0.5,3.1-3.1,5.3c-2.7,2.2-6,1.9-6,2.3c0,0.2,0.7,0.6,2.1,0.6
																						c1.4,0.1,3.4-0.4,5-1.7c1.6-1.4,2.3-3.1,2.4-4.4C174.8,101.9,174.5,101.1,174.3,101.1z"/>
																				</g>
																			</g>
																		</g>
																	</g>
																</g>
															</g>
														</g>
													</g>
												</g>
											</g>
										</g>
									</g>
								</g>
								<g>
									<g>
										<g>
											<g>
												<g>
													<g>
														<g>
															<g>
																<g>
																	<path class="st11" d="M175,72.9c0.3,0.8,3.1,0.4,6.5,0.8c3.4,0.3,6.1,1.3,6.5,0.6c0.2-0.3-0.3-1.1-1.4-1.8
																		c-1.1-0.8-2.8-1.5-4.8-1.7c-2-0.2-3.9,0.1-5.1,0.6C175.5,71.9,174.9,72.5,175,72.9z"/>
																</g>
															</g>
														</g>
													</g>
												</g>
											</g>
										</g>
									</g>
								</g>
								<g>
									<g>
										<g>
											<g>
												<g>
													<g>
														<g>
															<g>
																<g>
																	<path class="st11" d="M149.2,69c0.5,0.6,2.5,0,4.8-0.1c2.4-0.1,4.4,0.4,4.8-0.2c0.2-0.3-0.1-1-1-1.6
																		c-0.9-0.6-2.3-1.1-3.9-1.1c-1.6,0.1-3,0.6-3.9,1.3S149,68.7,149.2,69z"/>
																</g>
															</g>
														</g>
													</g>
												</g>
											</g>
										</g>
									</g>
								</g>
							</g>
						</g>
					</g>
				</g>
				<g>
					<g>
						<g>
							<path class="st11" d="M219.1,120.2c-5.7,1.1-11.9-0.6-16.2-4.6c-4.3-4-6.5-10-5.7-15.8c0.6-5.1,3.4-10.3,1.6-15.1
								c-2.3-6.4-11.3-8.3-13.6-14.7c-1.4-3.7-0.1-8-1.7-11.6c-1.5-3.4-5.1-5.4-8.5-6.6c-3.5-1.3-7.2-2.1-10.1-4.4s-4.8-6.6-2.9-9.8
								c15.5,1.9,30.7,5.6,45.3,11c3.4,1.3,6.9,2.8,8.9,5.8c2.1,3.2,2,7.3,1.8,11.1c-0.9,18.6-1.7,37.2-2.6,55.8"/>
						</g>
					</g>
				</g>
			</g>
			<g>
				<g>
					<g>
						<path class="st13" d="M217.8,127.4c0,0,0.1-0.1,0.3-0.2c0.3-0.2,0.6-0.4,0.9-0.7c0.8-0.6,2-1.6,3.4-2.8
							c1.4-1.3,3.2-2.9,4.9-5.1c1.7-2.2,3.3-5,3.9-8.5c0.6-3.4,0.2-7.7-2.7-10.9c-1.4-1.6-3.2-2.8-4.8-4.1c-1.7-1.3-3.1-3-3.8-5.1
							c-1.5-4.2-0.9-9.1-1.4-14.1c-0.7-5-2.4-10.1-5.9-14.3c-1.7-2.1-3.8-3.9-6.1-5c-2.4-1.2-4.9-1.8-7.3-2.4
							c-2.4-0.7-4.6-1.6-6.4-3.1c-1.8-1.5-3.3-3.3-4.6-5.1c-2.6-3.7-4.5-7.6-7-10.9c-1.2-1.6-2.6-3.1-4.1-4.3
							c-1.5-1.2-3.2-2.1-4.8-2.6c-3.3-1.1-6.9-0.8-9.2,0.9c-2.3,1.8-3.1,4.3-3.3,6.2c-0.1,2,0.6,3.5,1.3,4.3
							c0.3,0.4,0.6,0.7,0.9,0.8c0.2,0.2,0.3,0.2,0.3,0.2s-0.1-0.1-0.3-0.3c-0.2-0.2-0.5-0.4-0.8-0.9c-0.6-0.8-1.2-2.2-1-4.1
							c0.2-1.9,1.1-4.2,3.2-5.8c2.2-1.5,5.5-1.9,8.7-0.7c1.6,0.5,3.2,1.4,4.6,2.6c1.4,1.2,2.7,2.6,3.9,4.2c2.4,3.2,4.3,7.2,6.9,11
							c1.3,1.9,2.9,3.7,4.8,5.3c1.9,1.6,4.3,2.6,6.7,3.3c2.4,0.7,4.9,1.2,7.1,2.4c2.2,1.1,4.2,2.8,5.9,4.8c3.3,4,5.1,9,5.7,13.8
							c0.6,4.8-0.1,9.8,1.5,14.3c0.8,2.2,2.3,4.1,4,5.5c1.7,1.4,3.5,2.5,4.8,4c2.7,3,3.2,7,2.6,10.3c-0.5,3.4-2,6.1-3.6,8.3
							c-1.6,2.2-3.3,3.9-4.7,5.2c-1.4,1.3-2.6,2.3-3.3,3C218.2,127,217.8,127.3,217.8,127.4z"/>
					</g>
				</g>
			</g>
		</g>
	</g>
	<g>
		<g>
			<g>
				<path class="st11" d="M221.6,129.9c4.3-4.1,11.5-0.5,15.1,4.2c3.6,4.7,6.1,10.8,11.5,13.2c5.4,2.4,12.5,0.3,17,4.1
					c6.3,5.2,2.8,17.3,9.5,21.8c2.7,1.8,6.3,1.7,9.1,3.2c6.8,3.5,6.7,13.1,5.7,20.6c-1.5,10.6-3.1,21.6-9,30.6
					c-5.9,9-17.3,15.3-27.4,11.8c-9.8-3.3-14.8-13.9-18.7-23.4c-5.5-13.2-11-26.3-16.5-39.5c-3.2-7.6-6.4-15.3-7.4-23.5
					s0.4-17,5.6-23.4"/>
			</g>
		</g>
		<g>
			<g>
				<g>
					<path class="st8" d="M224.4,120.9c3.1-0.4,5.5,3.4,4.6,6.4c-0.8,3-3.7,5-6.6,6.1c-1.6,0.6-3.4,0.9-5.1,0.6
						c-1.7-0.3-3.3-1.5-3.9-3.1c-0.6-1.7-0.1-2.9,1.4-3.9c2-1.3,3.2-2.3,4.8-3.2C222,122.4,221.9,122.2,224.4,120.9"/>
				</g>
			</g>
		</g>
	</g>
	<g>
		<g>
			<polygon class="st8" points="153.1,154.2 165.1,145.1 210.4,142.2 212.3,148.3 197.5,240.2 209.2,350 145.9,350 			"/>
		</g>
		<g class="st9">
			<g>
				<path d="M201.6,311c-1.4-1.5-3.8-3.7-5.9-3.7c-15.1-0.3-30.6-1.9-45.7-2.2l-1.2,44.8c3.6-6.4,7.1-13,8-20.3
					c0.4-3.2,0.9-7,3.9-8.3c1.6-0.8,3.6-0.5,5.3-0.1c5.5,1.1,10.9,2.5,16.5,2.8s11.4-0.5,16.1-3.5c1.6-1,3.1-2.4,3.8-4.1
					C203.1,314.7,202.9,312.4,201.6,311z"/>
			</g>
		</g>
		<g>
			<g>
				<path class="st8" d="M162.9,156.1l-1.4-13.1c-0.3-2.3,1.4-4.4,3.8-4.6l41.7-3.8c1.1-0.1,2.1,0.8,2.1,1.9l0.5,15.6l-12.1,20.5
					l-12.4,4h-15.2l-8.7-9.3L162.9,156.1z"/>
			</g>
			<g>
				<g>
					<path class="st11" d="M203.4,147.1c0,0-0.6-0.1-1.7-0.2c-1.1-0.1-2.6-0.2-4.6-0.1s-4.2,0.4-6.7,1c-2.5,0.5-5.2,1.3-8.1,1.9
						c-2.9,0.7-5.6,1.3-8.2,1.5c-2.6,0.2-4.9,0-6.8-0.5c-1.9-0.5-3.3-1.2-4.3-1.8c-0.5-0.3-0.8-0.6-1-0.7c-0.2-0.2-0.3-0.3-0.3-0.3
						c0,0,0.5,0.3,1.4,0.9c0.9,0.5,2.4,1.2,4.2,1.6c1.9,0.4,4.2,0.6,6.7,0.3c2.5-0.2,5.3-0.8,8.1-1.5c2.9-0.7,5.6-1.4,8.1-1.9
						c2.5-0.5,4.8-0.8,6.8-0.9c1.9-0.1,3.5,0.1,4.6,0.2c0.5,0.1,0.9,0.2,1.2,0.2C203.3,147,203.5,147.1,203.4,147.1z"/>
				</g>
			</g>
			<g class="st9">
				<g>
					<path d="M163.9,149.2c-1.1,3.1-1.1,6.9,1.1,9.2c1.9,1.9,4.8,2.4,7.4,1.9s5-1.9,7.3-3.3c5.7-3.4,11.6-7,18.1-8.4
						c0.4-0.1,0.9-0.2,1.2-0.5s0.4-0.9,0-1.1c-0.1-0.1-0.4-0.1-0.5-0.2c-5.8-0.6-11.5,1.1-17.1,2.3c-5.7,1.3-11.7,2.2-17.1,0.2"/>
				</g>
			</g>
			<g>
				<g>
					<path class="st11" d="M171.9,137.9c0,0.1-0.8,0.3-1.4,1.4c-0.7,1.1-0.6,2.9-0.6,4.8c0.1,3.9,0.8,7,0.6,7c-0.1,0-0.3-0.8-0.6-2
						s-0.5-3-0.6-5c0-1,0-1.9,0.1-2.8c0.1-0.9,0.3-1.6,0.7-2.2c0.4-0.6,0.8-0.9,1.2-1.1C171.7,137.9,171.9,137.9,171.9,137.9z"/>
				</g>
			</g>
			<g>
				<g>
					<path class="st11" d="M182.9,149.3c-0.2,0,0.2-2.9-0.3-6.4c-0.5-3.5-1.6-6.1-1.5-6.2c0.1,0,0.4,0.6,0.9,1.7
						c0.4,1.1,0.9,2.7,1.1,4.4c0.3,1.8,0.2,3.4,0.1,4.6C183.1,148.6,183,149.3,182.9,149.3z"/>
				</g>
			</g>
			<g>
				<g>
					<path class="st11" d="M196.3,135.7c0.1,0,0.4,0.5,0.8,1.6c0.4,1,0.6,2.5,0.6,4.2c-0.1,1.7-0.6,3.1-1.1,4.1
						c-0.5,1-0.9,1.5-1,1.4c-0.1-0.1,1.4-2.3,1.6-5.5C197.4,138.1,196.2,135.7,196.3,135.7z"/>
				</g>
			</g>
		</g>
	</g>
	<g>
		<g>
			<path class="st3" d="M137.9,160.1c0,0-14.2,9.5-17.9,26.7c-2.9,13.5-11,84.9-11,84.9l-14.1,27.4l9.2,21.9l0,0
				c7.9,0.6,15.7-1.7,22.1-6.3l6.2-4.5l11.4-16.8L137.9,160.1z"/>
		</g>
		<g>
			<polygon class="st3" points="161.9,147.5 137.9,160.1 132.2,178.8 127.1,233 136.6,296.5 119.9,349.8 148.8,350 149.4,318.8 
				152.3,217.8 155.2,153.4 			"/>
		</g>
		<g>
			<g>
				<path class="st11" d="M150.3,231.7c0,0-0.2-0.3-0.4-0.8c-0.3-0.5-0.7-1.3-1.2-2.2c-0.5-1-1-2.2-1.6-3.6
					c-0.3-0.7-0.5-1.5-0.8-2.3c-0.3-0.8-0.6-1.7-0.9-2.6c-2.3-7.5-3.8-18.3-3.5-30.2c0-0.9,0.1-1.8,0.1-2.8l0-0.2l0.1-0.1
					c1.4-0.6,2.8-1.2,4.2-1.8l-0.1,0.4c-1.4-1.2-2.9-2.3-4.2-3.4l-0.1-0.1v-0.1c-0.2-4.5,0.9-8.5,1.9-12c1.1-3.5,2.2-6.6,3.2-9.1
					c1-2.5,1.9-4.5,2.5-5.8c0.3-0.7,0.6-1.2,0.7-1.5c0.2-0.3,0.3-0.5,0.3-0.5c0,0-0.1,0.2-0.2,0.5c-0.2,0.4-0.4,0.9-0.7,1.5
					c-0.6,1.4-1.4,3.3-2.4,5.8c-1,2.5-2.1,5.5-3.1,9.1c-1,3.5-2,7.5-1.8,11.9l-0.1-0.2c1.4,1.1,2.8,2.2,4.2,3.4l0.3,0.3l-0.4,0.2
					c-1.4,0.6-2.8,1.2-4.2,1.8l0.2-0.2c-0.1,0.9-0.1,1.8-0.1,2.7c-0.3,11.9,1.1,22.6,3.3,30.1c0.2,1,0.5,1.8,0.8,2.6
					c0.3,0.8,0.5,1.6,0.8,2.3c0.6,1.4,1.1,2.7,1.5,3.7c0.5,0.9,0.8,1.7,1.1,2.3C150.2,231.4,150.3,231.7,150.3,231.7z"/>
			</g>
		</g>
		<g>
			<g>
				<path class="st11" d="M131.4,269.7c0,0-0.1-0.3-0.2-0.8c-0.1-0.6-0.3-1.3-0.6-2.3c-0.3-1-0.5-2.2-0.8-3.6
					c-0.3-1.4-0.6-3-0.9-4.8c-0.3-1.8-0.6-3.8-0.9-5.9c-0.3-2.1-0.5-4.4-0.8-6.8c-0.4-4.8-0.7-10.1-0.7-15.6
					c0-5.6,0.3-10.9,0.8-15.6c0.3-2.4,0.5-4.7,0.8-6.8c0.3-2.1,0.6-4.1,0.9-5.9c0.3-1.8,0.7-3.4,0.9-4.8c0.3-1.4,0.6-2.6,0.8-3.6
					c0.2-1,0.4-1.7,0.6-2.3c0.1-0.5,0.2-0.8,0.2-0.8c0,0,0,0.3-0.1,0.8c-0.1,0.6-0.3,1.3-0.5,2.3c-0.2,1-0.5,2.2-0.7,3.6
					c-0.3,1.4-0.6,3-0.9,4.8c-0.3,1.8-0.6,3.8-0.9,5.9c-0.3,2.1-0.5,4.4-0.8,6.8c-0.4,4.8-0.7,10.1-0.7,15.6
					c0,5.5,0.3,10.8,0.7,15.6c0.2,2.4,0.4,4.7,0.8,6.8c0.3,2.1,0.6,4.1,0.9,5.9c0.3,1.8,0.6,3.4,0.9,4.8c0.3,1.4,0.5,2.6,0.7,3.6
					c0.2,1,0.4,1.7,0.5,2.3C131.3,269.4,131.4,269.7,131.4,269.7z"/>
			</g>
		</g>
		<g>
			<g>
				<path class="st11" d="M137.9,318.4c0.1,0-0.4,1-1.2,2.4c-0.8,1.5-2.1,3.4-3.7,5.4s-3.3,3.6-4.5,4.7c-1.3,1.1-2.1,1.7-2.1,1.6
					c-0.1-0.1,0.7-0.8,1.9-1.9c1.2-1.1,2.8-2.8,4.4-4.7c1.6-2,2.9-3.8,3.8-5.2C137.3,319.3,137.8,318.4,137.9,318.4z"/>
			</g>
		</g>
	</g>
	<g>
		<path class="st3" d="M248.7,158.6c10.3,4,17.9,12.8,20.4,23.6c7.9,34.8,21.4,81,21.6,95.9c0.3,19-8,32-18.9,34.4
			c-8.6,1.9-86.3-2.4-86.3-2.4l-3.6-29l63-9.3l-8.6-48.2l8.5-66.7L248.7,158.6z"/>
	</g>
	<g>
		<path class="st3" d="M244.7,157l-17.4-7.1l-18.4-10.8l-0.1,3.1l0,0c2.3,3.9,3,8.4,2.2,12.8l-15.3,79.7l3.5,58.2l7.1,57h55.2
			l-25.4-59.6l9-80.4L244.7,157z"/>
	</g>
	<g>
		<g>
			<path class="st11" d="M260.8,313c0,0-0.1,0-0.4,0c-0.3,0-0.6,0.1-1.1,0.1c-1,0.1-2.4,0.1-4.3,0.1c-3.8,0-9.2-0.1-16-0.3
				c-13.5-0.5-32.4-1.4-53.6-2.6l-0.2,0l0-0.2c-0.4-3.5-0.9-7.1-1.4-10.8c-0.8-6.3-1.6-12.4-2.3-18.2l0-0.3l0.3,0
				c19.2-2.8,36-5.2,48.1-7c6-0.9,10.8-1.5,14.1-2c1.6-0.2,2.9-0.4,3.8-0.5c0.4,0,0.7-0.1,1-0.1c0.2,0,0.3,0,0.3,0
				c0,0-0.1,0-0.3,0.1c-0.2,0-0.6,0.1-1,0.2c-0.9,0.1-2.1,0.3-3.8,0.6c-3.3,0.5-8.1,1.2-14.1,2.1c-12,1.8-28.8,4.3-48.1,7.2l0.2-0.3
				c0.7,5.8,1.5,11.9,2.3,18.2c0.5,3.7,0.9,7.3,1.4,10.8l-0.2-0.2c21.3,1.3,40.1,2.2,53.6,2.8c6.8,0.3,12.2,0.4,15.9,0.5
				c1.9,0,3.3,0,4.3,0c0.5,0,0.8,0,1.1-0.1C260.7,313,260.8,313,260.8,313z"/>
		</g>
	</g>
	<g>
		<g>
			<path class="st11" d="M235.6,218.9c0,0,0.1,0.2,0.1,0.5c0.1,0.4,0.2,0.9,0.3,1.5c0.3,1.4,0.6,3.3,1,5.7c0.9,4.9,2,11.5,3.3,18.8
				c1.2,7.3,2.3,13.9,3.1,18.8c0.4,2.4,0.7,4.3,0.9,5.7c0.1,0.6,0.2,1.1,0.2,1.6c0,0.4,0.1,0.5,0,0.5s-0.1-0.2-0.1-0.5
				c-0.1-0.4-0.2-0.9-0.3-1.5c-0.3-1.4-0.6-3.3-1.1-5.7c-0.9-4.8-2-11.5-3.3-18.8c-1.3-7.4-2.4-14-3.1-18.8
				c-0.4-2.4-0.7-4.3-0.9-5.7c-0.1-0.6-0.1-1.1-0.2-1.6C235.6,219.1,235.6,218.9,235.6,218.9z"/>
		</g>
	</g>
	<g>
		<g>
			<path class="st11" d="M216.9,144.8c0,0,0,0.1,0.1,0.2c0,0.2,0.1,0.4,0.2,0.6c0.1,0.5,0.4,1.3,0.6,2.3c0.4,2,1,4.9,1.3,8.6
				s0.5,8.1,0.3,13.1c-0.2,5-0.7,10.5-1.4,16.3l0,0.2l-0.2,0c-1.8,0.3-3.7,0.7-5.7,1.1l0.2-0.4c0.3,0.9,0.7,1.8,0.9,2.8
				c1.9,6.8,1,13.6-0.6,19.3c-1.7,5.8-4.3,10.5-6.7,14.4c-2.4,3.9-4.5,6.8-6,8.9c-0.7,1-1.3,1.8-1.7,2.3c-0.2,0.2-0.3,0.4-0.5,0.6
				c-0.1,0.1-0.2,0.2-0.2,0.2s0-0.1,0.1-0.2c0.1-0.2,0.3-0.4,0.4-0.6c0.4-0.6,0.9-1.4,1.6-2.4c1.4-2.1,3.5-5.1,5.9-8.9
				c2.3-3.9,4.9-8.6,6.5-14.4c1.6-5.7,2.4-12.4,0.6-19c-0.3-1-0.6-1.9-0.9-2.7l-0.1-0.3l0.3-0.1c1.9-0.4,3.9-0.7,5.7-1l-0.2,0.2
				c0.8-5.8,1.3-11.3,1.5-16.3c0.2-5,0.1-9.4-0.2-13c-0.3-3.7-0.8-6.6-1.2-8.6c-0.2-1-0.4-1.8-0.5-2.3c-0.1-0.2-0.1-0.4-0.1-0.6
				C216.9,144.9,216.9,144.8,216.9,144.8z"/>
		</g>
	</g>
	<g>
		<path class="st7" d="M216.9,226.5v-12.7c0,0,0.2-3.1-2.5-2.5c-2.6,0.7-2.1,5.6-2.1,5.6s-0.5,19.3,0.7,19.1s1.6-1.6,1.6-1.6V227
			L216.9,226.5z"/>
	</g>
	<g>
		<g>
			<path class="st11" d="M227.9,227.3c0,0.1-3.1,0.3-6.8,0.3s-6.8-0.1-6.8-0.3s3.1-0.3,6.8-0.3C224.8,227,227.9,227.1,227.9,227.3z"
				/>
		</g>
	</g>
	<g>
		<g>
			<path class="st11" d="M253,166.1c0,0-0.5,0.2-1.4,0.5c-0.9,0.3-2.2,0.8-3.8,1.6c-3.1,1.6-7.1,4.4-10.2,8.7
				c-0.8,1.1-1.5,2.2-2,3.3c-0.5,1.1-0.9,2.3-1.2,3.4c-0.6,2.2-0.9,4.3-1,6c-0.1,1.7-0.2,3.1-0.2,4.1c0,1,0,1.5,0,1.5
				s-0.1-0.5-0.2-1.5c0-1-0.1-2.4,0-4.1c0.1-1.8,0.3-3.8,0.9-6.1c0.3-1.1,0.7-2.3,1.2-3.5c0.6-1.1,1.2-2.3,2-3.4
				c3.2-4.4,7.3-7.2,10.5-8.7c1.6-0.8,2.9-1.2,3.9-1.5C252.5,166.2,253,166.1,253,166.1z"/>
		</g>
	</g>
	<g>
		<g>
			<polygon class="st11" points="28.9,271.8 119.9,305.5 196.6,317.2 105.4,272.8 			"/>
		</g>
		<g>
			<g>
				<path class="st12" d="M67.9,308.1c-0.7-4.8-2.4-9.5-4.8-13.8c-0.5-0.8-1-1.7-1.2-2.6c-0.2-0.9-0.1-2,0.5-2.7
					c1.2-1.3,3.3-0.7,4.7,0.3c3,2,5,5.2,6.1,8.6s1.6,7,2,10.5"/>
			</g>
			<g>
				<g>
					<path class="st12" d="M103.3,299.5h-4.5c-0.9-1-2.3-1.8-4-2.3c-1-0.3-2.1,0.3-3,1.2c2-3.3,4.2-7,4.6-8c0.8-2-1-3.4-3.9-3.4
						s-15.8,18.2-15.8,18.2s8-14.7,8.8-16.9c1.9-5.6-4.2-6-6.4-3.3c-2.8,3.4-13.9,20.2-13.9,20.2s-2.1,3.4-0.7,6.7
						c1.5,3.3,5.7,2,5.7,2s0,2.9,3,4.5c3.3,1.8,7.6-0.3,7.6-0.3l16.6,3.7c0,0,2.6-0.3,6-0.6c8.4-0.8,15.2-7.3,16.4-15.7l0,0
						L103.3,299.5z"/>
				</g>
				<g>
					<g>
						<path class="st14" d="M92.1,298.1c0.2,0.1-2,3.6-4.9,7.8c-1.4,2.1-2.8,4-3.8,5.3c-1,1.3-1.6,2.1-1.7,2.1
							c-0.1,0,0.5-0.9,1.4-2.3c0.9-1.4,2.2-3.3,3.6-5.4c1.4-2.1,2.8-4,3.7-5.3c0.4-0.6,0.8-1.1,1.2-1.6
							C91.9,298.3,92.1,298.1,92.1,298.1z"/>
					</g>
				</g>
				<g>
					<g>
						<path class="st14" d="M91.1,316.6c-0.1,0,0.5-1.1,1.5-2.7c1-1.6,2.4-3.9,3.9-6.4c0.8-1.2,1.5-2.4,2.1-3.5
							c0.6-1,0.6-2.2,0.4-3.1c-0.5-1.8-1.5-2.6-1.4-2.6c0,0,0.3,0.1,0.6,0.5c0.4,0.4,0.8,1.1,1.1,2c0.3,0.9,0.4,2.2-0.3,3.4
							c-0.6,1.1-1.3,2.3-2.1,3.6c-1.5,2.5-3,4.7-4.1,6.3S91.2,316.7,91.1,316.6z"/>
					</g>
				</g>
				<g>
					<g>
						<path class="st14" d="M99.9,318.3c-0.1,0,0.2-1,0.9-2.6c0.4-0.8,0.8-1.7,1.2-2.7c0.4-1,0.9-2.1,1.2-3.4
							c0.3-1.2,0.1-2.4-0.5-3.3c-0.3-0.4-0.8-0.6-1.2-0.9c-0.4-0.2-0.9-0.3-1.2-0.4c-0.8,0-1.4,0.5-1.8,0.6
							c-0.4,0.2-0.7,0.3-0.7,0.3c0,0,0.2-0.2,0.6-0.5c0.2-0.1,0.4-0.3,0.8-0.5c0.3-0.1,0.6-0.4,1.1-0.4c0.5,0,0.9,0.1,1.4,0.3
							c0.5,0.2,1,0.5,1.4,0.9c0.8,1,1,2.4,0.7,3.7c-0.3,1.3-0.8,2.4-1.3,3.4c-0.5,1-0.9,1.9-1.3,2.7
							C100.3,317.4,99.9,318.3,99.9,318.3z"/>
					</g>
				</g>
				<g>
					<g>
						<path class="st14" d="M102.9,302.6c0,0,0.3,0,0.7,0.2s1.1,0.5,1.7,1c1.4,1,3,2.9,3.6,5.5c0.6,2.6-0.1,5-0.9,6.5
							c-0.4,0.8-0.8,1.3-1.1,1.7c-0.3,0.4-0.5,0.5-0.6,0.5c-0.1-0.1,0.7-0.8,1.4-2.3c0.7-1.5,1.3-3.8,0.7-6.3
							c-0.6-2.5-2-4.3-3.3-5.4C103.9,303,102.9,302.6,102.9,302.6z"/>
					</g>
				</g>
			</g>
			<g>
				<g>
					<path class="st14" d="M73.6,293c0.1,0.1-1.6,2.8-3.8,6s-4.1,5.8-4.2,5.7c-0.1-0.1,1.6-2.8,3.8-6S73.5,292.9,73.6,293z"/>
				</g>
			</g>
		</g>
	</g>
	<g>
		<g>
			<path class="st12" d="M181.5,282.3l-10.4-2.4l-10-9.4c-1.2-1.1-2.8-1.8-4.4-1.9l-18.2-1c-1.8-0.1-3.6,0.5-5,1.7l-13,11l56.7,27.6
				l7.8,0.7L181.5,282.3z"/>
		</g>
		<g>
			<g>
				<path class="st14" d="M150.7,277.4c0,0.1-1.4-0.2-3.5-0.4c-2.1-0.2-5.2-0.5-8.2,0.9c-1.5,0.7-2.8,1.6-3.9,2.5
					c-1.1,0.9-2.2,1.7-3.1,2.3s-1.7,1-2.3,1.3c-0.6,0.3-0.9,0.4-0.9,0.3c0-0.1,1.2-0.6,2.9-1.9c0.9-0.6,1.9-1.5,3-2.4
					c1.1-0.9,2.4-1.9,4-2.5c1.5-0.7,3.2-1,4.6-1c1.5,0,2.8,0.1,3.9,0.3c1.1,0.2,1.9,0.4,2.5,0.5
					C150.4,277.3,150.7,277.4,150.7,277.4z"/>
			</g>
		</g>
		<g>
			<g>
				<path class="st14" d="M154.4,287.5c0,0.1-0.7-0.2-2-0.4c-1.2-0.1-2.9,0-4.7,0.6c-1.8,0.6-3.2,1.5-4.3,2.2c-1.1,0.6-1.7,1-1.8,1
					c0-0.1,0.6-0.6,1.6-1.3c1-0.7,2.5-1.7,4.3-2.4c1.8-0.7,3.6-0.8,4.9-0.5C153.8,287,154.5,287.5,154.4,287.5z"/>
			</g>
		</g>
		<g>
			<g>
				<path class="st14" d="M177.8,289.2c-0.1,0.1-1.6-2.1-3.5-4.7c-1.9-2.6-3.6-4.6-3.5-4.7c0.1-0.1,1.9,1.8,3.9,4.4
					C176.7,286.8,177.9,289.2,177.8,289.2z"/>
			</g>
		</g>
	</g>
	<g>
		<path class="st7" d="M149.2,268.6l23-21.5c1-0.9,0.9-2.5-0.2-3.4l0,0c-0.8-0.6-2-0.6-2.8,0.1l-27,24.2"/>
	</g>
	<g class="st9">
		<path d="M149.2,268.6l23-21.5c1-0.9,0.9-2.5-0.2-3.4l0,0c-0.8-0.6-2-0.6-2.8,0.1l-27,24.2"/>
	</g>
</g>
<g id="Character_2">
	<g>
		<g>
			<g>
				<g>
					<g>
						<g>
							<g>
								<g>
									<g>
										<g>
											<g>
												<path class="st16" d="M337.4,61.9c-0.4-0.1-14.3-3.8-13.5,10.3c0.8,14.1,14.8,10.4,14.8,9.9
													C338.8,81.7,337.4,61.9,337.4,61.9z"/>
											</g>
										</g>
									</g>
								</g>
							</g>
						</g>
					</g>
				</g>
			</g>
			<g>
				<g>
					<g>
						<g>
							<g>
								<g>
									<g>
										<g>
											<g>
												<g>
													<path class="st17" d="M334.2,77.1c-0.1,0-0.2,0.2-0.6,0.4c-0.4,0.2-1.1,0.4-1.8,0.1c-1.5-0.5-2.9-2.8-3.1-5.3
														c-0.1-1.3,0.1-2.5,0.5-3.6c0.4-1.1,1-1.8,1.7-2c0.7-0.2,1.3,0.2,1.5,0.6c0.2,0.4,0.1,0.7,0.2,0.7c0,0,0.3-0.3,0.1-0.8
														c-0.1-0.3-0.3-0.6-0.6-0.9c-0.4-0.3-0.9-0.4-1.4-0.3c-1.1,0.1-2,1.2-2.4,2.3c-0.5,1.1-0.7,2.5-0.6,4
														c0.3,2.8,1.9,5.4,4,5.9c1,0.2,1.8-0.1,2.2-0.5C334.2,77.4,334.2,77.1,334.2,77.1z"/>
												</g>
											</g>
										</g>
									</g>
								</g>
							</g>
						</g>
					</g>
				</g>
			</g>
		</g>
		<g>
			<g>
				<g>
					<path class="st11" d="M372.7,11.5c7.2,0,14.5,0,23.4,4.7c5.7,2.9,9.2,7.6,12.1,13.3c2.3,4.3,3.6,10,3.3,14.9s-0.3,8.3-2.2,12.8
						"/>
				</g>
				<g>
					<g>
						<g>
							<g>
								<g>
									<g>
										<g>
											<g>
												<g>
													<g>
														<g>
															<g>
																<g>
																	<g>
																		<g>
																			<g>
																				<g>
																					<path class="st16" d="M369.8,12.6c21.2-1.5,39.5,14.7,40.6,35.9c0.9,17.7,1.7,36.8,1.5,46.4
																						c-0.4,20.7-21.1,23.7-21.1,23.7s0.5,6.1,1,13.7c1,15.3-10.8,28.4-26.1,29l0,0c-15,0.6-27.7-11.2-28.2-26.2
																						l-3.1-83.3C333.7,31.4,349.3,14,369.8,12.6L369.8,12.6z"/>
																				</g>
																			</g>
																		</g>
																	</g>
																</g>
															</g>
														</g>
													</g>
												</g>
												<g>
													<g>
														<g>
															<g>
																<g>
																	<g>
																		<g>
																			<g>
																				<g>
																					<path class="st17" d="M390.9,118.7c0,0-12.7,0.7-26.5-8.2c0,0,6.3,15,26.9,13.3L390.9,118.7z"/>
																				</g>
																			</g>
																		</g>
																	</g>
																</g>
															</g>
														</g>
													</g>
												</g>
											</g>
										</g>
									</g>
									<g>
										<g>
											<g>
												<g>
													<g>
														<g>
															<g>
																<g>
																	<g>
																		<g>
																			<g>
																				<g>
																					<g>
																						<g>
																							<g>
																								<path class="st11" d="M402.5,60c0,1.6-1.2,2.9-2.9,2.9c-1.6,0.1-3-1.1-3-2.7c0-1.6,1.2-2.9,2.9-3
																									C401.1,57.3,402.5,58.5,402.5,60z"/>
																							</g>
																						</g>
																					</g>
																				</g>
																			</g>
																		</g>
																	</g>
																</g>
															</g>
															<g>
																<g>
																	<g>
																		<g>
																			<g>
																				<g>
																					<g>
																						<g>
																							<g>
																								<g>
																									<path class="st11" d="M405.4,55.9c-0.4,0.4-2.6-1.3-5.8-1.3c-3.2-0.1-5.5,1.6-5.9,1.2
																										c-0.2-0.2,0.2-0.9,1.2-1.6c1-0.7,2.7-1.4,4.7-1.4s3.6,0.8,4.6,1.5C405.2,55,405.6,55.7,405.4,55.9z"/>
																								</g>
																							</g>
																						</g>
																					</g>
																				</g>
																			</g>
																		</g>
																	</g>
																</g>
															</g>
														</g>
														<g>
															<g>
																<g>
																	<g>
																		<g>
																			<g>
																				<g>
																					<g>
																						<g>
																							<g>
																								<path class="st11" d="M371.4,60c0,1.6-1.2,2.9-2.9,2.9c-1.6,0.1-3-1.1-3-2.7c0-1.6,1.2-2.9,2.9-3
																									C370,57.3,371.4,58.5,371.4,60z"/>
																							</g>
																						</g>
																					</g>
																				</g>
																			</g>
																		</g>
																	</g>
																</g>
															</g>
															<g>
																<g>
																	<g>
																		<g>
																			<g>
																				<g>
																					<g>
																						<g>
																							<g>
																								<g>
																									<path class="st11" d="M374.2,56.2c-0.4,0.4-2.6-1.3-5.8-1.3c-3.2-0.1-5.5,1.6-5.9,1.2
																										c-0.2-0.2,0.2-0.9,1.2-1.6c1-0.7,2.7-1.4,4.7-1.4c2,0,3.6,0.8,4.6,1.5C374,55.3,374.4,56,374.2,56.2z"/>
																								</g>
																							</g>
																						</g>
																					</g>
																				</g>
																			</g>
																		</g>
																	</g>
																</g>
															</g>
														</g>
														<g>
															<g>
																<g>
																	<g>
																		<g>
																			<g>
																				<g>
																					<g>
																						<g>
																							<g>
																								<path class="st11" d="M385.5,79.8c0-0.2,2-0.5,5.2-0.9c0.8-0.1,1.6-0.2,1.7-0.8c0.2-0.6-0.1-1.5-0.5-2.4
																									c-0.8-2-1.5-4-2.4-6.2c-3.3-8.8-5.6-16.1-5.3-16.2c0.4-0.1,3.3,6.9,6.5,15.7c0.8,2.2,1.5,4.3,2.3,6.2
																									c0.3,0.9,0.8,2,0.4,3.2c-0.2,0.6-0.8,1-1.3,1.2c-0.5,0.1-1,0.2-1.4,0.2C387.5,80,385.5,80,385.5,79.8z"/>
																							</g>
																						</g>
																					</g>
																				</g>
																			</g>
																		</g>
																	</g>
																</g>
															</g>
														</g>
														<g>
															<g>
																<g>
																	<g>
																		<g>
																			<g>
																				<g>
																					<g>
																						<g>
																							<g>
																								<path class="st11" d="M376.1,82c0.5,0,0.5,3.4,3.4,5.9c2.9,2.5,6.6,2.1,6.6,2.6c0,0.2-0.8,0.7-2.4,0.7
																									c-1.5,0-3.7-0.5-5.5-2s-2.5-3.5-2.6-4.9C375.5,82.8,375.9,81.9,376.1,82z"/>
																							</g>
																						</g>
																					</g>
																				</g>
																			</g>
																		</g>
																	</g>
																</g>
															</g>
														</g>
													</g>
												</g>
											</g>
											<g>
												<g>
													<g>
														<g>
															<g>
																<g>
																	<g>
																		<g>
																			<g>
																				<path class="st11" d="M375.1,43.8c-0.3,0.9-3.5,0.4-7.2,0.9c-3.7,0.3-6.8,1.4-7.2,0.6c-0.2-0.4,0.3-1.2,1.5-2
																					c1.2-0.8,3.1-1.6,5.4-1.8s4.3,0.1,5.6,0.7C374.5,42.7,375.2,43.4,375.1,43.8z"/>
																			</g>
																		</g>
																	</g>
																</g>
															</g>
														</g>
													</g>
												</g>
											</g>
											<g>
												<g>
													<g>
														<g>
															<g>
																<g>
																	<g>
																		<g>
																			<g>
																				<path class="st11" d="M404.9,44.6c-0.6,0.7-2.7-0.1-5.4-0.1c-2.6-0.1-4.9,0.4-5.4-0.3c-0.2-0.4,0.1-1.1,1.1-1.8
																					c1-0.7,2.6-1.2,4.4-1.1s3.4,0.7,4.3,1.5C404.9,43.5,405.2,44.2,404.9,44.6z"/>
																			</g>
																		</g>
																	</g>
																</g>
															</g>
														</g>
													</g>
												</g>
											</g>
										</g>
									</g>
								</g>
							</g>
						</g>
					</g>
				</g>
				<g>
					<g>
						<g>
							<path class="st11" d="M334.7,58.4c0,0,0.9,4.8,1.1,6.9c0.1,0.8,0,9.5,2.1,10c1.8,0.4,5.5-1.3,7.1-4.9
								c1.6-3.6,4.7-12.3,4.4-16.3c-0.5-5.4-0.7-10.9,0.4-16.2s3.6-10.5,7.9-13.8s10.4-4.5,15.2-2.1c3,1.5,5.2,4.2,8,6
								c2.5,1.7,5.5,2.7,8.5,2.2s5.8-2.5,6.6-5.4c0.9-3.2-0.7-6.6-3.3-8.7c-2.5-2.1-5.8-3.1-9-3.7c-8.9-1.8-18.4-1.4-26.8,1.9
								s-16,9.6-19.6,17.9C333.1,42,333.6,47.9,334.7,58.4"/>
						</g>
					</g>
				</g>
			</g>
			<g>
				<g>
					<g>
						<path class="st11" d="M381.9,60.2c-0.1,0,0-1.3-0.5-3.4c-0.5-2.1-2-5.2-5.1-7.6c-1.6-1.2-3.5-2.2-5.8-2.6
							c-2.3-0.4-4.8-0.3-7.3,0.6c-1.2,0.4-2.4,1.1-3.5,1.9c-1.1,0.8-2.1,1.8-2.9,2.9c-1.7,2.3-2.6,5.2-2.7,8.1c0,3,1,5.9,2.7,8.1
							c0.8,1.1,1.8,2.1,2.9,2.9c1.1,0.8,2.3,1.5,3.5,1.9c2.4,0.9,5,1,7.3,0.6c2.3-0.4,4.3-1.4,5.8-2.6c3.2-2.4,4.6-5.5,5.1-7.6
							C381.9,61.4,381.8,60.2,381.9,60.2c0,0,0,0.1,0,0.2c0,0.2,0,0.4,0,0.7c0,0.3,0,0.7-0.1,1.1c-0.1,0.4-0.1,0.9-0.3,1.5
							c-0.5,2.1-1.9,5.4-5.1,7.9c-1.6,1.2-3.6,2.3-6,2.7c-2.3,0.4-5,0.4-7.5-0.6c-1.3-0.4-2.5-1.1-3.6-1.9c-1.1-0.8-2.2-1.8-3-3
							c-1.8-2.3-2.8-5.4-2.8-8.4c0-3.1,1-6.1,2.8-8.4c0.9-1.2,1.9-2.2,3-3c1.1-0.8,2.4-1.5,3.6-1.9c2.5-0.9,5.2-1,7.5-0.6
							c2.4,0.4,4.4,1.5,6,2.7c3.2,2.5,4.6,5.7,5.1,7.9c0.1,0.5,0.2,1,0.3,1.5c0.1,0.4,0.1,0.8,0.1,1.1c0,0.3,0,0.5,0,0.7
							C381.9,60.1,381.9,60.2,381.9,60.2z"/>
					</g>
				</g>
				<g>
					<g>
						<path class="st11" d="M418.3,60.2c-0.1,0,0-1.3-0.5-3.4c-0.5-2.1-2-5.2-5.1-7.6c-1.6-1.2-3.5-2.2-5.8-2.6
							c-2.3-0.4-4.8-0.3-7.3,0.6c-1.2,0.4-2.4,1.1-3.5,1.9c-1.1,0.8-2.1,1.8-2.9,2.9c-1.7,2.3-2.6,5.2-2.7,8.1c0,3,1,5.9,2.7,8.1
							c0.8,1.1,1.8,2.1,2.9,2.9c1.1,0.8,2.3,1.5,3.5,1.9c2.4,0.9,5,1,7.3,0.6c2.3-0.4,4.3-1.4,5.8-2.6c3.2-2.4,4.6-5.5,5.1-7.6
							C418.3,61.4,418.2,60.2,418.3,60.2c0,0,0,0.1,0,0.2c0,0.2,0,0.4,0,0.7c0,0.3,0,0.7-0.1,1.1c-0.1,0.4-0.1,0.9-0.3,1.5
							c-0.5,2.1-1.9,5.4-5.1,7.9c-1.6,1.2-3.6,2.3-6,2.7c-2.3,0.4-5,0.4-7.5-0.6c-1.3-0.4-2.5-1.1-3.6-1.9c-1.1-0.8-2.2-1.8-3-3
							c-1.8-2.3-2.8-5.4-2.8-8.4c0-3.1,1-6.1,2.8-8.4c0.9-1.2,1.9-2.2,3-3c1.1-0.8,2.4-1.5,3.6-1.9c2.5-0.9,5.2-1,7.5-0.6
							c2.4,0.4,4.4,1.5,6,2.7c3.2,2.5,4.6,5.7,5.1,7.9c0.1,0.5,0.2,1,0.3,1.5c0.1,0.4,0.1,0.8,0.1,1.1c0,0.3,0,0.5,0,0.7
							C418.3,60.1,418.3,60.2,418.3,60.2z"/>
					</g>
				</g>
				<g>
					<g>
						<path class="st11" d="M390.5,58.7c0,0.1-0.5-0.2-1.3-0.4c-0.8-0.3-1.9-0.5-3.2-0.4c-1.3,0.1-2.4,0.5-3.1,0.8
							c-0.8,0.4-1.2,0.7-1.2,0.6c0,0,0.3-0.5,1-0.9s1.9-0.9,3.2-1c1.4-0.1,2.6,0.2,3.4,0.6C390.1,58.2,390.5,58.6,390.5,58.7z"/>
					</g>
				</g>
			</g>
			<g>
				<path class="st11" d="M396.1,23.8c0.2-1.1-0.1-1.7,0.5-2.1c0.7-0.5,2,0.8,2.5,1.3c0.1,0.2,0.6-0.5,0.8-0.6
					c0.1-0.1,0.4-1.2,0.4-1.4c-0.1-0.8-1.3-0.9-1.8-1.5c-0.5-0.5-1.2-0.9-2-1.1c-0.6-0.2-1.4-0.3-1.9,0.1c-0.4,0.3-0.4,0.9-0.4,1.4
					c0,0.5,0.1,1,0.3,1.5s0.5,0.9,1,1.1"/>
			</g>
			<g>
				<path class="st3" d="M333.9,47.4c0,0,10.1,3.7,15.4,5.9l-0.3-5.2l-14.7-5.8C334.3,42.4,333.9,46.2,333.9,47.4z"/>
			</g>
			<g>
				<g>
					<path class="st3" d="M334.9,39.4c0.1-0.1,3.3,1.1,7.2,2.8c3.9,1.6,7,3.1,7,3.2c-0.1,0.1-3.3-1.1-7.2-2.8
						C337.9,41,334.8,39.5,334.9,39.4z"/>
				</g>
			</g>
		</g>
	</g>
	<g>
		<path class="st8" d="M337.9,148.5l-0.8-24.5c0,0,4.9,22.4,30.4,22.1c24.4-0.3,23.9-19.8,23.9-19.8l0.9,9.9v39.9l-15.9,65.1
			l-20.3,2.6l-22.4-89L337.9,148.5z"/>
	</g>
	<g>
		<g>
			<path class="st11" d="M389.2,140.7c0,0-0.1,0.2-0.3,0.5c-0.2,0.3-0.5,0.9-1,1.4c-0.9,1.2-2.4,2.8-4.5,4.4c-2.2,1.6-5.1,3-8.5,4
				c-3.4,0.9-7.4,1.3-11.4,0.8c-4.1-0.6-7.8-1.8-11-3.3c-3.2-1.5-5.9-3.3-8-4.8c-2.1-1.6-3.8-3-4.9-4c-0.5-0.5-1-0.9-1.2-1.2
				c-0.3-0.3-0.4-0.4-0.4-0.4s0.2,0.1,0.5,0.4c0.3,0.3,0.8,0.7,1.3,1.1c1.1,1,2.8,2.3,4.9,3.9c2.2,1.5,4.8,3.2,8,4.7
				c3.2,1.5,6.9,2.7,10.9,3.2c4,0.5,7.9,0.1,11.3-0.7c3.4-0.9,6.2-2.3,8.4-3.8c2.2-1.5,3.7-3.1,4.6-4.2
				C388.7,141.3,389.1,140.6,389.2,140.7z"/>
		</g>
	</g>
	<g>
		<g>
			<path class="st3" d="M371.5,349.9l-0.4-115.7l-32.9-84.4l-1.1-25.4l-20,15.1c0,0-29.1,100.3-29.6,96.9s0,113.6,0,113.6H371.5z"/>
			<g>
				<g>
					<path class="st11" d="M370.7,349.6c-0.1,0-0.3-26.1-0.3-58.2c0-32.2,0.1-58.2,0.3-58.2s0.3,26.1,0.3,58.2
						C370.9,323.5,370.8,349.6,370.7,349.6z"/>
				</g>
			</g>
		</g>
		<g>
			<polygon class="st1" points="317.4,156 321.5,159.1 318.6,177.8 366.6,228.1 323,170.8 326.7,156 			"/>
		</g>
		<g>
			<path class="st3" d="M373.3,290.6l-73.6-21.6l-2.4-55.9l20.2-73.7c0,0-48.1,24-51.4,39.3c-3.3,15.3-11.2,52.4-12,79.3
				c-0.8,24-0.9,40,4.6,47.7c15.7,21.9,119.1,25.9,160.5,0"/>
		</g>
		<g>
			<g>
				<path class="st11" d="M367.5,229.3c0,0-0.1-0.1-0.2-0.3c-0.2-0.2-0.4-0.5-0.7-0.8c-0.6-0.8-1.4-1.8-2.5-3.2
					c-2.2-2.8-5.3-6.9-9.1-11.8c-7.7-10-18.3-23.9-29.9-39.2c-0.8-1-1.5-2-2.3-3l-0.1-0.1l0-0.1c1.3-5.1,2.5-10.1,3.7-14.8l0.2,0.3
					c-3.2,0-6.3,0-9.3,0h-0.2V156c0-6.1,0-11.6,0-16.5v-0.1l0.1-0.1c6.1-4.6,11-8.4,14.5-11c1.7-1.3,3-2.3,4-3
					c0.4-0.3,0.8-0.6,1-0.8c0.2-0.2,0.4-0.3,0.4-0.3c0,0-0.1,0.1-0.3,0.3c-0.3,0.2-0.6,0.5-1,0.8c-0.9,0.7-2.2,1.8-3.9,3.1
					c-3.4,2.7-8.3,6.5-14.4,11.1l0.1-0.2c0,4.9,0,10.5,0,16.5l-0.2-0.2c3,0,6.1,0,9.3,0h0.3l-0.1,0.3c-1.2,4.7-2.4,9.7-3.7,14.8
					l0-0.2c0.7,1,1.5,2,2.3,3c11.6,15.3,22.2,29.2,29.8,39.3c3.8,5,6.9,9.1,9,11.9c1,1.4,1.9,2.5,2.4,3.3c0.3,0.4,0.5,0.6,0.6,0.9
					C367.4,229.2,367.5,229.3,367.5,229.3z"/>
			</g>
		</g>
		<g>
			<path class="st3" d="M400.3,135.1c-5.9-10.3-8.9-9.2-8.9-9.2l0.3,3.7l0,7.7l-2.8,33L371.1,242l0.4,107.9h67.4l8.4-131.8
				l-0.8-56.8L400.3,135.1z"/>
		</g>
		<g>
			<path class="st3" d="M446.5,161.4c0,0,17.5,12.9,19,33.6c1.2,16.8,4,62.9,4.5,73c0.8,15.6-11.4,52.2-43,41.9
				c-19-6.2-89.2-30.1-89.2-30.1l4.7-29.8l83.3,5l1.6-69.5L446.5,161.4z"/>
		</g>
		<g>
			<path class="st16" d="M341.5,253.3c0,0-23.6-2.5-29-1.2c-5.3,1.3-12.7,7.7-12.7,7.7l0.1,9.3l37.9,10.6L341.5,253.3z"/>
		</g>
		<g>
			<g>
				<path class="st11" d="M371.1,231.2c0,0,0-0.1,0.1-0.3c0.1-0.2,0.2-0.5,0.4-0.9c0.3-0.8,0.8-2,1.4-3.5c1.3-3.1,3.1-7.5,5.3-12.9
					c2.3-5.5,4.9-11.9,7.9-19.1c0.8-1.8,1.5-3.7,2.4-5.5c0.9-1.9,1.9-3.6,3-5.5c2.2-3.6,4.7-7.2,7.5-10.8c1.4-1.8,2.7-3.5,4.1-5.1
					l0,0.3c-1-2.5-2-5-2.9-7.5l-0.1-0.3l0.3-0.1c4.3-1.5,8.4-2.9,12.3-4.2l-0.1,0.3c-5.7-9.5-10.5-17.6-13.9-23.3
					c-1.7-2.8-3.1-5.1-4.6-6c-0.8-0.5-1.4-0.6-1.9-0.8c-0.5-0.1-0.7-0.1-0.7-0.2c0,0,0.2,0,0.7,0.1c0.5,0.1,1.1,0.2,1.9,0.7
					c0.8,0.4,1.6,1.3,2.4,2.3c0.8,1,1.6,2.3,2.5,3.7c3.5,5.7,8.3,13.7,14.1,23.2l0.1,0.3l-0.3,0.1c-3.9,1.3-8,2.7-12.3,4.2l0.1-0.3
					c1,2.4,1.9,4.9,3,7.5l0.1,0.1l-0.1,0.1c-1.4,1.6-2.8,3.3-4.1,5.1c-2.7,3.5-5.3,7.1-7.5,10.8c-1.1,1.8-2.1,3.6-3,5.4
					c-0.9,1.8-1.7,3.6-2.4,5.5c-3,7.2-5.7,13.6-8,19.1c-2.3,5.4-4.1,9.8-5.4,12.9c-0.6,1.5-1.1,2.7-1.5,3.5
					c-0.2,0.4-0.3,0.7-0.4,0.9C371.1,231.1,371.1,231.2,371.1,231.2z"/>
			</g>
		</g>
		<g>
			<g>
				<path class="st11" d="M456.1,304c0,0-0.1,0.1-0.3,0.3c-0.2,0.2-0.5,0.5-0.9,0.9c-0.8,0.8-2.1,1.8-3.8,2.9
					c-1.8,1.1-4.1,2.2-7,2.9c-2.9,0.8-6.3,1-10,0.6c-1.9-0.2-3.8-0.6-5.8-1.2c-2-0.6-3.9-1.4-6-2.1c-4.1-1.5-8.5-3-13.2-4.7
					c-9.3-3.3-19.5-6.7-30.4-10.3c-21.6-7.1-41.3-13.1-55.6-17.3c-7.1-2.1-12.9-3.8-16.9-5c-2-0.6-3.5-1-4.6-1.4
					c-0.5-0.2-0.9-0.3-1.2-0.4c-0.3-0.1-0.4-0.1-0.4-0.1s0.1,0,0.4,0.1c0.3,0.1,0.7,0.2,1.2,0.3c1.1,0.3,2.6,0.7,4.6,1.3
					c4,1.1,9.8,2.8,17,4.9c14.3,4.2,34,10.1,55.6,17.2c10.8,3.5,21,7,30.3,10.3c4.6,1.6,9,3.2,13.2,4.7c2.1,0.7,4,1.5,6,2.1
					c1.9,0.6,3.8,1,5.7,1.2c3.7,0.4,7.1,0.2,9.9-0.5s5.2-1.8,7-2.8c1.8-1.1,3-2.1,3.9-2.8c0.4-0.4,0.7-0.6,0.9-0.8
					C456,304.1,456.1,304,456.1,304z"/>
			</g>
		</g>
		<g>
			<g>
				<path class="st11" d="M299.9,269.3c0,0.1-1.3-0.2-3.4-0.1c-1,0-2.3,0.2-3.6,0.6c-1.3,0.4-2.7,1-4.1,1.9
					c-2.7,1.7-4.6,4.1-5.7,5.9c-1.1,1.8-1.6,3-1.7,3c0,0,0.1-0.3,0.3-0.9c0.2-0.6,0.6-1.4,1.1-2.3c1.1-1.9,2.9-4.3,5.7-6.1
					c1.4-0.9,2.9-1.5,4.3-1.9c1.4-0.4,2.7-0.5,3.8-0.5c1.1,0,2,0.1,2.5,0.2C299.5,269.2,299.9,269.3,299.9,269.3z"/>
			</g>
		</g>
		<g>
			<g>
				<path class="st11" d="M276.7,262c0,0,0-0.1,0.1-0.3c0.1-0.2,0.2-0.4,0.5-0.6c0.5-0.5,1.4-1.1,2.6-1.3c1.2-0.3,2.7-0.2,4.3,0
					c1.6,0.2,3.4,0.6,5.1,1.3c3.5,1.3,6.4,3.3,8.1,5c0.9,0.9,1.5,1.6,1.9,2.2c0.4,0.6,0.6,0.9,0.5,0.9c-0.1,0.1-0.9-1.2-2.7-2.9
					c-1.8-1.6-4.6-3.5-8.1-4.8c-1.7-0.6-3.4-1-5-1.3s-3-0.3-4.2-0.1c-1.2,0.2-2.1,0.6-2.5,1.1C276.9,261.7,276.7,262,276.7,262z"/>
			</g>
		</g>
		<g>
			<g>
				<path class="st11" d="M304.1,197.8c0,0-0.2-0.5-0.3-1.5c-0.1-0.5-0.4-1-0.6-1.7c-0.3-0.6-0.6-1.4-1.1-2.1
					c-0.9-1.5-2.2-3.3-3.8-5c-1.6-1.7-3.5-3.5-5.8-5.1c-4.4-3.2-9.1-5-12.6-5.8c-1.8-0.3-3.2-0.5-4.2-0.5c-1,0-1.5-0.1-1.6-0.1
					c0,0,0.5-0.1,1.6-0.1c1-0.1,2.5,0.1,4.3,0.4c3.5,0.6,8.3,2.5,12.8,5.7c2.3,1.6,4.2,3.4,5.8,5.2c1.6,1.8,2.9,3.5,3.7,5.1
					c0.4,0.8,0.7,1.6,1,2.2c0.2,0.7,0.4,1.3,0.5,1.8C304.1,197.2,304.2,197.8,304.1,197.8z"/>
			</g>
		</g>
		<g>
			<g>
				<path class="st11" d="M443.9,283.3c0,0,0-0.1,0-0.4c0-0.3,0-0.6,0-1c0-0.9-0.1-2.3-0.2-4c-0.3-3.5-0.9-8.5-3-14.4
					c-0.5-1.5-1.1-3-2-4.4c-0.9-1.4-2.2-2.6-3.9-3.3c-3.4-1.4-7.4-1.3-11.5-1.5c-8.3-0.4-17.3-0.7-26.8-1.1
					c-22.2-1-41.9-1.8-54.3-2.5l0.2-0.1c-0.8,4.5-1.3,8.2-1.8,10.7c-0.2,1.2-0.4,2.2-0.5,2.8c-0.1,0.3-0.1,0.5-0.1,0.7
					c0,0.2,0,0.2-0.1,0.2s0-0.1,0-0.3c0-0.2,0-0.4,0.1-0.7c0.1-0.7,0.2-1.6,0.4-2.8c0.4-2.5,0.9-6.1,1.6-10.7l0-0.1l0.1,0
					c12.5,0.5,32.1,1.3,54.3,2.3c9.5,0.4,18.6,0.8,26.8,1.2c2.1,0.1,4.1,0.1,6,0.3c2,0.2,3.9,0.5,5.6,1.3c1.7,0.7,3.1,2,4.1,3.5
					c0.9,1.5,1.5,3,2,4.5c2,5.9,2.6,11,2.8,14.5c0.1,1.8,0.1,3.1,0.1,4c0,0.4,0,0.8,0,1C443.9,283.1,443.9,283.3,443.9,283.3z"/>
			</g>
		</g>
		<g>
			<g>
				<path class="st11" d="M428,218c0.1,0,0.3,8.1,0.3,18c0,10-0.1,18-0.3,18s-0.3-8.1-0.3-18S427.9,218,428,218z"/>
			</g>
		</g>
		<g>
			<g>
				<path class="st11" d="M266.6,177c0,0-0.1,0.2-0.2,0.7c-0.1,0.4-0.4,1.1-0.6,2c-0.5,1.7-1.1,4.3-1.8,7.7
					c-1.4,6.7-3.1,16.6-5,28.9c-1,6.2-2,13-3,20.3c-0.5,3.7-0.8,7.5-1.1,11.5c-0.3,4-0.5,8-0.6,12.3c-0.3,8.4-0.5,17.3-0.2,26.5
					c0.1,2.3,0.2,4.6,0.4,7c0.1,1.2,0.3,2.3,0.4,3.5c0.3,1.1,0.5,2.3,0.9,3.5c0.7,2.3,1.8,4.5,3.3,6.3c1.5,1.9,3.5,3.5,5.7,4.4l0,0
					l0,0c4.6,2.4,9.7,4.1,14.8,5.7c5.2,1.5,10.5,2.8,15.9,3.9c12.1,2.5,24.2,3.9,35.8,4.4c5.8,0.2,11.5,0,17.1-0.5
					c5.6-0.4,11-1,16.3-1.8c10.5-1.5,20.3-3.9,29.2-6.8c8.9-2.9,16.7-6.5,23.6-10.1l0,0.3c-13.7-4.9-24.8-8.8-32.4-11.5
					c-3.8-1.4-6.7-2.4-8.7-3.1c-1-0.4-1.7-0.6-2.3-0.8c-0.5-0.2-0.8-0.3-0.8-0.3s0.3,0.1,0.8,0.3c0.5,0.2,1.3,0.4,2.3,0.8
					c2,0.7,5,1.7,8.7,3c7.6,2.7,18.6,6.5,32.4,11.3l0.4,0.1l-0.4,0.2c-6.9,3.7-14.7,7.3-23.6,10.2c-8.9,3-18.7,5.3-29.2,6.9
					c-5.3,0.8-10.7,1.4-16.3,1.8c-5.6,0.4-11.3,0.6-17.1,0.5c-11.7-0.4-23.7-1.9-35.9-4.4c-5.4-1.1-10.8-2.4-16-3.9
					c-5.2-1.6-10.3-3.3-14.9-5.7l0,0c-2.4-1-4.4-2.6-5.9-4.5c-1.5-1.9-2.7-4.2-3.4-6.5c-0.4-1.1-0.6-2.3-0.9-3.5
					c-0.1-1.2-0.3-2.4-0.4-3.6c-0.2-2.4-0.3-4.7-0.3-7c-0.2-9.3,0-18.2,0.3-26.6c0.2-4.2,0.4-8.3,0.6-12.3c0.3-4,0.6-7.8,1.1-11.5
					c1-7.3,2.1-14.1,3-20.3c2-12.3,3.7-22.2,5.2-28.9c0.7-3.4,1.4-6,1.9-7.7c0.2-0.9,0.5-1.5,0.6-1.9
					C266.5,177.2,266.6,177,266.6,177z"/>
			</g>
		</g>
		<g>
			<path class="st1" d="M299.7,262.4c12.3-13.6,11.8-37.9,4.7-55.1c-0.6,18.6-2.9,35.1-4.5,53.3"/>
		</g>
		<g>
			<g>
				<path class="st11" d="M304.5,210.8c0,0,0,0.2,0,0.6c0,0.5-0.1,1-0.1,1.7c-0.1,1.5-0.3,3.7-0.5,6.3c-0.4,5.3-1,12.6-1.7,20.6
					c-0.6,8-1.2,15.3-1.6,20.6c-0.2,2.6-0.4,4.7-0.5,6.3c-0.1,0.7-0.1,1.3-0.1,1.7c0,0.4-0.1,0.6-0.1,0.6s0-0.2,0-0.6
					c0-0.5,0-1,0-1.7c0-1.5,0.2-3.6,0.3-6.3c0.3-5.3,0.8-12.6,1.5-20.6c0.7-8,1.3-15.3,1.9-20.6c0.3-2.6,0.5-4.7,0.7-6.2
					c0.1-0.7,0.1-1.3,0.2-1.7C304.4,211,304.5,210.8,304.5,210.8z"/>
			</g>
		</g>
		<g>
			<g>
				<g>
					<path class="st11" d="M334.8,186.2c0.1,0,0.3,4.7,0.3,10.6s-0.1,10.6-0.3,10.6s-0.3-4.7-0.3-10.6
						C334.5,190.9,334.7,186.2,334.8,186.2z"/>
				</g>
			</g>
			<g>
				<g>
					<g>
						<path class="st1" d="M326.8,221.3c0.2,2.2,1.1,4.1,2.3,5.6s3.5,3,5.4,2.9c0,0,4.7,0.4,7.3-3.6c2.3-3.7,2.9-11.3,1-15.8
							c-1.3-3.1-4.1-6-7.5-6.1c-4.4-0.1-7.2,3.1-8.1,6.3"/>
					</g>
					<g>
						<g>
							<path class="st11" d="M327.2,210.5c0,0,0.1-0.8,0.8-2.2c0.4-0.6,0.9-1.4,1.6-2.2c0.8-0.7,1.8-1.4,3.1-1.8
								c0.6-0.2,1.4-0.3,2.1-0.3c0.7,0,1.5,0,2.3,0.3c1.5,0.5,3,1.5,4.1,2.9c1.1,1.4,2,3.1,2.4,5c0.4,1.9,0.6,3.9,0.5,5.9
								c-0.2,3.1-0.8,6.3-2.5,8.6c-0.9,1.2-2.1,2-3.3,2.5c-1.3,0.5-2.5,0.7-3.8,0.6h0c-1,0-1.9-0.3-2.7-0.7c-0.8-0.4-1.5-0.9-2-1.4
								c-1.1-1.1-1.8-2.3-2.2-3.3c-0.4-1-0.6-1.9-0.7-2.4c0-0.3-0.1-0.5-0.1-0.7c0-0.1,0-0.2,0-0.2c0.1,0,0.1,1.3,1,3.2
								c0.5,1,1.1,2.1,2.2,3.1c0.5,0.5,1.2,1,2,1.3c0.8,0.4,1.6,0.6,2.5,0.6h0h0c2.3,0.1,5-0.8,6.6-3c1.6-2.2,2.2-5.3,2.4-8.4
								c0.2-4-0.5-7.9-2.7-10.6c-1.1-1.3-2.4-2.3-3.9-2.8c-0.7-0.2-1.4-0.3-2.1-0.3c-0.7,0-1.4,0.1-2,0.3c-1.2,0.4-2.3,1-3,1.7
								c-0.8,0.7-1.3,1.4-1.7,2C327.4,209.7,327.2,210.6,327.2,210.5z"/>
						</g>
					</g>
				</g>
				<g>
					<g>
						<path class="st1" d="M324.5,221.5c0.2,2.2,1.1,4.1,2.3,5.6s3.5,3,5.4,2.9c0,0,4.7,0.4,7.3-3.6c2.3-3.7,2.9-11.3,1-15.8
							c-1.3-3.1-4.1-6-7.5-6.1c-4.4-0.1-7.2,3.1-8.1,6.3"/>
					</g>
					<g>
						<g>
							<path class="st11" d="M324.8,210.7c0,0,0.1-0.8,0.8-2.2c0.4-0.6,0.9-1.4,1.6-2.2c0.8-0.7,1.8-1.4,3.1-1.8
								c0.6-0.2,1.4-0.3,2.1-0.3c0.7,0,1.5,0,2.3,0.3c1.5,0.5,3,1.5,4.1,2.9c1.1,1.4,2,3.1,2.4,5c0.4,1.9,0.6,3.9,0.5,5.9
								c-0.2,3.1-0.8,6.3-2.5,8.6c-0.9,1.2-2.1,2-3.3,2.5c-1.3,0.5-2.5,0.7-3.8,0.6h0c-1,0-1.9-0.3-2.7-0.7c-0.8-0.4-1.5-0.9-2-1.4
								c-1.1-1.1-1.8-2.3-2.2-3.3c-0.4-1-0.6-1.9-0.7-2.4c0-0.3-0.1-0.5-0.1-0.7c0-0.1,0-0.2,0-0.2c0.1,0,0.1,1.3,1,3.2
								c0.5,1,1.1,2.1,2.2,3.1c0.5,0.5,1.2,1,2,1.3c0.8,0.4,1.6,0.6,2.5,0.6h0h0c2.3,0.1,5-0.8,6.6-3c1.6-2.2,2.2-5.3,2.4-8.4
								c0.2-4-0.5-7.9-2.7-10.6c-1.1-1.3-2.4-2.3-3.9-2.8c-0.7-0.2-1.4-0.3-2.1-0.3c-0.7,0-1.4,0.1-2,0.3c-1.2,0.4-2.3,1-3,1.7
								c-0.8,0.7-1.3,1.4-1.7,2C325.1,209.9,324.9,210.8,324.8,210.7z"/>
						</g>
					</g>
				</g>
				<g>
					<g>
						<path class="st1" d="M328.7,209.6c-2.2-0.4-4.4,1.1-5.4,3.1c-0.9,2-0.7,4.4,0,6.5c0.4,1.1,0.9,2.1,1.7,2.9s1.9,1.4,3,1.5
							c1.7,0,3.2-1.1,4.1-2.4c1.6-2.2,2.1-5.1,1.4-7.7c-0.5-1.7-1.7-3.5-3.5-3.6"/>
					</g>
					<g>
						<g>
							<path class="st11" d="M330,210c0,0,0.1,0,0.4,0c0.3,0,0.6,0.1,1.1,0.4c0.9,0.5,1.9,1.7,2.3,3.4c0.4,1.7,0.4,4-0.6,6.1
								c-0.5,1.1-1.2,2.1-2.2,2.9c-1,0.8-2.5,1.3-3.9,0.9c-1.4-0.4-2.4-1.4-3.1-2.5c-0.7-1.1-1-2.3-1.3-3.5c-0.5-2.3-0.1-4.6,1-6
								c1.1-1.5,2.5-2.1,3.5-2.2c0.5-0.1,0.9,0,1.1,0c0.3,0,0.4,0.1,0.4,0.1c0,0.1-0.5-0.1-1.5,0.1c-0.9,0.2-2.3,0.8-3.2,2.2
								c-1,1.4-1.3,3.5-0.8,5.7c0.2,1.1,0.6,2.3,1.3,3.3c0.6,1,1.6,1.9,2.8,2.3c1.2,0.4,2.5-0.1,3.4-0.8c1-0.7,1.6-1.7,2.1-2.7
								c1-2,1.1-4.2,0.7-5.8c-0.3-1.7-1.2-2.9-2-3.4C330.6,210,330,210,330,210z"/>
						</g>
					</g>
				</g>
				<g>
					<g>
						<path class="st11" d="M333.7,226.1c-0.1,0-0.2-0.3-0.5-0.7c-0.3-0.4-0.9-0.9-1.7-1.1c-0.8-0.2-1.5-0.3-2.1-0.3
							c-0.6,0-0.9-0.1-0.9-0.2s0.3-0.1,0.9-0.2c0.6,0,1.4-0.1,2.3,0.2c0.9,0.3,1.5,0.9,1.9,1.4C333.8,225.6,333.8,226,333.7,226.1z"
							/>
					</g>
				</g>
				<g>
					<g>
						<path class="st11" d="M334.5,208.3c0,0-0.1,0.4-0.6,0.7c-0.5,0.4-1.2,0.8-2.1,0.9s-1.7,0.1-2.3-0.1c-0.6-0.2-0.9-0.4-0.8-0.5
							c0-0.1,1.4,0.4,3,0.1C333.4,209.1,334.4,208.1,334.5,208.3z"/>
					</g>
				</g>
			</g>
		</g>
		<g>
			<g>
				<g>
					<path class="st11" d="M403.2,136.6c0,0,0.1,0,0.3,0.1c0.2,0.1,0.5,0.2,0.9,0.5c0.8,0.4,1.8,1.1,3,2.1c2.4,2,5.1,5.6,6.4,10.2
						c1.4,4.5,2.1,8.8,2.5,11.9c0.2,1.5,0.3,2.8,0.3,3.6c0,0.9,0.1,1.3,0,1.4s-0.1-0.5-0.2-1.3c-0.1-1-0.3-2.2-0.5-3.6
						c-0.4-3.1-1.2-7.3-2.6-11.8c-1.3-4.5-3.9-8-6.2-10.1C405,137.5,403.2,136.7,403.2,136.6z"/>
				</g>
			</g>
			<g>
				<g>
					<path class="st11" d="M390.8,246.7c2.9-0.1,5.2-3,8.1-2.9c2.1,0.1,4,2.2,3.8,4.4c-0.2,2.1-2.3,3.9-4.5,3.7
						c-3-0.4-4.8-3.9-7.8-4.6"/>
				</g>
				<g>
					<path class="st11" d="M415.4,249.2c-0.9,0-1.8-0.1-2.7-0.2l0.2-1c3.6,0.6,6.6,0,8.9-1.8c3-2.2,4.9-6.1,5.7-11.6l0-0.2
						c0.3-2.2,0.8-45,0.8-53.1c0-12.7-11.1-14.4-11.6-14.5c-0.5-0.1-10.6-1.8-15.9,12.1c-5.6,14.5-14.6,42.5-15.2,45.7
						c-0.1,0.4-0.2,0.9-0.3,1.5c-0.9,4.2-2.9,12.9,2.9,18c6.5,5.6,11.6,3.4,11.8,3.3l0.4,0.9c-0.2,0.1-5.9,2.5-12.9-3.5
						c-6.3-5.4-4.2-14.5-3.3-18.9c0.1-0.6,0.2-1,0.3-1.4c0.6-3.3,9.6-31.4,15.3-45.9c5.7-14.7,16.9-12.7,17-12.7
						c0.1,0,12.5,1.9,12.5,15.5c0,6.7-0.4,50.9-0.8,53.2l0,0.2c-0.8,5.8-2.9,9.9-6.1,12.2C420.4,248.4,418,249.2,415.4,249.2z"/>
				</g>
			</g>
			<g>
				<g>
					<path class="st11" d="M428.7,189.5c-0.1,0-0.3-2.1-2.1-5c-0.9-1.4-2.2-2.9-4-4.3c-1.8-1.3-4-2.5-6.4-3c-5-1.1-9.7,0.1-12.7,1.6
						c-3,1.5-4.3,3.3-4.4,3.1c0,0,0.1-0.1,0.2-0.3c0.2-0.2,0.4-0.5,0.8-0.8c0.7-0.7,1.8-1.5,3.3-2.4c1.5-0.8,3.4-1.6,5.6-2
						c2.2-0.4,4.8-0.4,7.3,0.1s4.8,1.8,6.6,3.2c1.8,1.4,3.1,3,4,4.5s1.3,2.8,1.5,3.7c0.1,0.5,0.2,0.8,0.2,1.1
						C428.7,189.4,428.8,189.5,428.7,189.5z"/>
				</g>
			</g>
		</g>
		<g>
			<g>
				<path class="st11" d="M454.2,269.5c-0.1,0-0.3-1.7-1.4-4.3c-1.1-2.5-3.3-5.9-6.8-8.1c-1.8-1.1-3.7-1.7-5.5-2
					c-1.8-0.3-3.5-0.4-4.8-0.5c-1.3-0.1-2.4-0.2-3.3-0.2c-0.8-0.1-1.2-0.1-1.2-0.2c0,0,0.4,0,1.2,0c0.9,0,2,0,3.3,0.1
					c1.4,0,3.1,0.1,4.9,0.4c1.8,0.3,3.9,0.8,5.7,2c3.7,2.4,5.8,5.8,6.8,8.4c0.5,1.3,0.8,2.4,0.9,3.2
					C454.2,269,454.2,269.5,454.2,269.5z"/>
			</g>
		</g>
		<g>
			<g>
				<path class="st16" d="M403.8,252.8c0,0,9.8-14.9,12.4-16.9c2.5-2,24-11.6,26.5-10.1c2.5,1.6,1,4.9,1,4.9s9.1-3.2,10-1.9
					c1,1.3,1.2,3.4,0,5.1c0,0,5-0.8,5,0.8c0,1.5-0.6,3.5-2.9,5.2s-17.4,11.8-18.6,14.6l-4.9-0.3L403.8,252.8z"/>
			</g>
			<g>
				<g>
					<path class="st17" d="M432,248.5c0,0,0.1-0.4,0.5-0.9c0.3-0.6,0.9-1.4,1.6-2.3c1.5-1.9,4-4.1,7.1-6s6.2-3.1,8.4-4
						c1.1-0.4,2-0.7,2.6-1c0.6-0.2,1-0.3,1-0.3s-0.3,0.2-0.9,0.5c-0.7,0.3-1.6,0.7-2.6,1.1c-2.2,0.9-5.2,2.2-8.3,4.1s-5.6,4-7.1,5.8
						C432.8,247.3,432.1,248.6,432,248.5z"/>
				</g>
			</g>
			<g>
				<g>
					<path class="st17" d="M419.6,248.3c0,0,0.1-0.4,0.5-1.1s0.8-1.7,1.5-2.9c0.7-1.2,1.5-2.6,2.7-4c0.6-0.7,1.2-1.4,2.1-2
						c0.8-0.6,1.7-1.1,2.6-1.6c3.6-2.1,7-3.8,9.6-4.8c1.3-0.5,2.4-0.8,3.1-1c0.8-0.2,1.2-0.3,1.2-0.2c0,0.1-1.6,0.5-4.1,1.6
						c-2.5,1.1-5.9,2.8-9.5,4.9c-0.9,0.5-1.8,1-2.6,1.6c-0.7,0.5-1.4,1.3-2,1.9c-1.2,1.4-2,2.7-2.8,3.9c-0.6,1.1-1.2,2-1.6,2.8
						C419.8,248,419.6,248.3,419.6,248.3z"/>
				</g>
			</g>
		</g>
	</g>
</g>
<g id="Desk">
	<g>
		<path class="st11" d="M682,350.2c0,0.1-150.9,0.3-336.9,0.3c-186.1,0-337-0.1-337-0.3s150.8-0.3,337-0.3
			C531.1,349.9,682,350,682,350.2z"/>
	</g>
</g>
</svg>
